<svg width="24" height="26" viewBox="0 0 24 24" fill="none" xmlns="http://www.w3.org/2000/svg">
<circle cx="12" cy="12" r="12" fill="url(#paint0_linear)"/>
<g opacity="0.6" filter="url(#filter0_d)">
<path d="M6.4477 7.10557C6.78649 6.428 7.47901 6 8.23656 6H15.7644C16.522 6 17.2145 6.428 17.5533 7.10557L19.0005 10H5.00049L6.4477 7.10557Z" fill="url(#paint1_linear)"/>
</g>
<g filter="url(#filter1_d)">
<path d="M5.00049 10C5.00049 9.44772 5.4482 9 6.00049 9H18.0005C18.5528 9 19.0005 9.44772 19.0005 10V11.5C19.0005 12.3284 18.3289 13 17.5005 13H6.50049C5.67206 13 5.00049 12.3284 5.00049 11.5V10Z" fill="url(#paint2_linear)"/>
</g>
<g opacity="0.6" filter="url(#filter2_d)">
<path d="M6.00049 13C6.00049 11.8954 6.89592 11 8.00049 11H16.0005C17.1051 11 18.0005 11.8954 18.0005 13V16C18.0005 17.1046 17.1051 18 16.0005 18H8.00049C6.89592 18 6.00049 17.1046 6.00049 16V13Z" fill="url(#paint3_linear)"/>
</g>
<g opacity="0.6" filter="url(#filter3_d)">
<path d="M10.434 12.4087C10.6224 12.1518 10.9219 12 11.2405 12H12.7604C13.079 12 13.3784 12.1518 13.5668 12.4086L14.0005 13H10.0005L10.434 12.4087Z" fill="url(#paint4_linear)"/>
</g>
<defs>
<filter id="filter0_d" x="1.00049" y="6" width="22" height="12" filterUnits="userSpaceOnUse" color-interpolation-filters="sRGB">
<feFlood flood-opacity="0" result="BackgroundImageFix"/>
<feColorMatrix in="SourceAlpha" type="matrix" values="0 0 0 0 0 0 0 0 0 0 0 0 0 0 0 0 0 0 127 0"/>
<feOffset dy="4"/>
<feGaussianBlur stdDeviation="2"/>
<feColorMatrix type="matrix" values="0 0 0 0 0.143767 0 0 0 0 0.704167 0 0 0 0 0.617685 0 0 0 0.37 0"/>
<feBlend mode="normal" in2="BackgroundImageFix" result="effect1_dropShadow"/>
<feBlend mode="normal" in="SourceGraphic" in2="effect1_dropShadow" result="shape"/>
</filter>
<filter id="filter1_d" x="1.00049" y="9" width="22" height="12" filterUnits="userSpaceOnUse" color-interpolation-filters="sRGB">
<feFlood flood-opacity="0" result="BackgroundImageFix"/>
<feColorMatrix in="SourceAlpha" type="matrix" values="0 0 0 0 0 0 0 0 0 0 0 0 0 0 0 0 0 0 127 0"/>
<feOffset dy="4"/>
<feGaussianBlur stdDeviation="2"/>
<feColorMatrix type="matrix" values="0 0 0 0 0.104635 0 0 0 0 0.6125 0 0 0 0 0.534126 0 0 0 0.37 0"/>
<feBlend mode="normal" in2="BackgroundImageFix" result="effect1_dropShadow"/>
<feBlend mode="normal" in="SourceGraphic" in2="effect1_dropShadow" result="shape"/>
</filter>
<filter id="filter2_d" x="2.00049" y="11" width="20" height="15" filterUnits="userSpaceOnUse" color-interpolation-filters="sRGB">
<feFlood flood-opacity="0" result="BackgroundImageFix"/>
<feColorMatrix in="SourceAlpha" type="matrix" values="0 0 0 0 0 0 0 0 0 0 0 0 0 0 0 0 0 0 127 0"/>
<feOffset dy="4"/>
<feGaussianBlur stdDeviation="2"/>
<feColorMatrix type="matrix" values="0 0 0 0 0.143767 0 0 0 0 0.704167 0 0 0 0 0.617685 0 0 0 0.37 0"/>
<feBlend mode="normal" in2="BackgroundImageFix" result="effect1_dropShadow"/>
<feBlend mode="normal" in="SourceGraphic" in2="effect1_dropShadow" result="shape"/>
</filter>
<filter id="filter3_d" x="6.00049" y="12" width="12" height="9" filterUnits="userSpaceOnUse" color-interpolation-filters="sRGB">
<feFlood flood-opacity="0" result="BackgroundImageFix"/>
<feColorMatrix in="SourceAlpha" type="matrix" values="0 0 0 0 0 0 0 0 0 0 0 0 0 0 0 0 0 0 127 0"/>
<feOffset dy="4"/>
<feGaussianBlur stdDeviation="2"/>
<feColorMatrix type="matrix" values="0 0 0 0 0.143767 0 0 0 0 0.704167 0 0 0 0 0.617685 0 0 0 0.37 0"/>
<feBlend mode="normal" in2="BackgroundImageFix" result="effect1_dropShadow"/>
<feBlend mode="normal" in="SourceGraphic" in2="effect1_dropShadow" result="shape"/>
</filter>
<linearGradient id="paint0_linear" x1="12" y1="0" x2="12" y2="24" gradientUnits="userSpaceOnUse">
<stop stop-color="#4CE8D0"/>
<stop offset="1" stop-color="#1DC6AC"/>
</linearGradient>
<linearGradient id="paint1_linear" x1="12.0005" y1="6" x2="12.0005" y2="10" gradientUnits="userSpaceOnUse">
<stop stop-color="white"/>
<stop offset="1" stop-color="#C6FFF6"/>
</linearGradient>
<linearGradient id="paint2_linear" x1="12.0005" y1="9" x2="12.0005" y2="13" gradientUnits="userSpaceOnUse">
<stop stop-color="white"/>
<stop offset="1" stop-color="#C6FFF6"/>
</linearGradient>
<linearGradient id="paint3_linear" x1="12.0005" y1="11" x2="12.0005" y2="18" gradientUnits="userSpaceOnUse">
<stop stop-color="white"/>
<stop offset="1" stop-color="#C6FFF6"/>
</linearGradient>
<linearGradient id="paint4_linear" x1="12.0005" y1="12" x2="12.0005" y2="13" gradientUnits="userSpaceOnUse">
<stop stop-color="#36D7BE"/>
<stop offset="1" stop-color="#64F2DD"/>
</linearGradient>
</defs>
</svg>
