<svg width="18" height="18" viewBox="0 0 18 18" fill="none" xmlns="http://www.w3.org/2000/svg">
<path d="M5.3515 7.3535L8.75 3.955L12.1502 7.3553L14.1278 5.3777L8.75 0L3.374 5.376L5.3515 7.3535ZM0 8.75L1.9775 6.7725L3.955 8.75L1.9775 10.7275L0 8.75ZM5.3515 10.1465L8.75 13.545L12.1502 10.1447L14.1278 12.1214L8.75 17.5L3.374 12.124L3.37137 12.1214L5.3515 10.1465ZM13.545 8.75L15.5225 6.7725L17.5 8.75L15.5225 10.7275L13.545 8.75ZM10.7555 8.7483H10.7573V8.75L8.75 10.7573L6.7454 8.7535L6.7419 8.75L6.7454 8.7474L7.0962 8.3956L7.2669 8.225L8.75 6.7428L10.7564 8.7491L10.7555 8.7483Z" fill="#BBBDD6"/>
</svg>
