<svg width="24" height="24" viewBox="0 0 24 24" fill="none" xmlns="http://www.w3.org/2000/svg">
<circle cx="12" cy="12" r="12" fill="url(#paint0_linear)"/>
<mask id="mask0" mask-type="alpha" maskUnits="userSpaceOnUse" x="0" y="0" width="24" height="24">
<circle cx="12" cy="12" r="12" fill="url(#paint1_linear)"/>
</mask>
<g mask="url(#mask0)">
<g opacity="0.6" filter="url(#filter0_d)">
<path fill-rule="evenodd" clip-rule="evenodd" d="M14.3502 12.7861C15.9933 12.7861 17.3254 11.4908 17.3254 9.89303C17.3254 8.29525 15.9933 7 14.3502 7C12.707 7 11.375 8.29525 11.375 9.89303C11.375 11.4908 12.707 12.7861 14.3502 12.7861ZM13 13.508C10.7909 13.508 9 15.2989 9 17.508V22.9998C9 24.1044 9.89543 24.9998 11 24.9998H17C18.1046 24.9998 19 24.1044 19 22.9998V17.508C19 15.2989 17.2091 13.508 15 13.508H13Z" fill="url(#paint2_linear)"/>
</g>
<g filter="url(#filter1_d)">
<path fill-rule="evenodd" clip-rule="evenodd" d="M9.93447 14.4726C11.5776 14.4726 12.9097 13.1426 12.9097 11.5019C12.9097 9.86127 11.5776 8.53125 9.93447 8.53125C8.29131 8.53125 6.95926 9.86127 6.95926 11.5019C6.95926 13.1426 8.29131 14.4726 9.93447 14.4726ZM9 15.547C6.79086 15.547 5 17.3379 5 19.547V23.5318C5 24.6364 5.89543 25.5318 7 25.5318H13C14.1046 25.5318 15 24.6364 15 23.5318V19.547C15 17.3379 13.2091 15.547 11 15.547H9Z" fill="url(#paint3_linear)"/>
</g>
</g>
<defs>
<filter id="filter0_d" x="5" y="7" width="18" height="25.9998" filterUnits="userSpaceOnUse" color-interpolation-filters="sRGB">
<feFlood flood-opacity="0" result="BackgroundImageFix"/>
<feColorMatrix in="SourceAlpha" type="matrix" values="0 0 0 0 0 0 0 0 0 0 0 0 0 0 0 0 0 0 127 0"/>
<feOffset dy="4"/>
<feGaussianBlur stdDeviation="2"/>
<feColorMatrix type="matrix" values="0 0 0 0 0.143767 0 0 0 0 0.704167 0 0 0 0 0.617685 0 0 0 0.37 0"/>
<feBlend mode="normal" in2="BackgroundImageFix" result="effect1_dropShadow"/>
<feBlend mode="normal" in="SourceGraphic" in2="effect1_dropShadow" result="shape"/>
</filter>
<filter id="filter1_d" x="1" y="8.53125" width="18" height="25.0006" filterUnits="userSpaceOnUse" color-interpolation-filters="sRGB">
<feFlood flood-opacity="0" result="BackgroundImageFix"/>
<feColorMatrix in="SourceAlpha" type="matrix" values="0 0 0 0 0 0 0 0 0 0 0 0 0 0 0 0 0 0 127 0"/>
<feOffset dy="4"/>
<feGaussianBlur stdDeviation="2"/>
<feColorMatrix type="matrix" values="0 0 0 0 0.143767 0 0 0 0 0.704167 0 0 0 0 0.617685 0 0 0 0.37 0"/>
<feBlend mode="normal" in2="BackgroundImageFix" result="effect1_dropShadow"/>
<feBlend mode="normal" in="SourceGraphic" in2="effect1_dropShadow" result="shape"/>
</filter>
<linearGradient id="paint0_linear" x1="12" y1="0" x2="12" y2="24" gradientUnits="userSpaceOnUse">
<stop stop-color="#4CE8D0"/>
<stop offset="1" stop-color="#1DC6AC"/>
</linearGradient>
<linearGradient id="paint1_linear" x1="12" y1="0" x2="12" y2="24" gradientUnits="userSpaceOnUse">
<stop stop-color="#4CE8D0"/>
<stop offset="1" stop-color="#1DC6AC"/>
</linearGradient>
<linearGradient id="paint2_linear" x1="14.8739" y1="7.88397" x2="14.8739" y2="23.3132" gradientUnits="userSpaceOnUse">
<stop stop-color="white"/>
<stop offset="1" stop-color="#C6FFF6"/>
</linearGradient>
<linearGradient id="paint3_linear" x1="9.79355" y1="9.43899" x2="9.79355" y2="24.6263" gradientUnits="userSpaceOnUse">
<stop stop-color="white"/>
<stop offset="1" stop-color="#C6FFF6"/>
</linearGradient>
</defs>
</svg>
