<svg width="24" height="24" viewBox="0 0 24 24" fill="none" xmlns="http://www.w3.org/2000/svg">
<circle cx="12" cy="12" r="12" fill="url(#paint0_linear)"/>
<mask id="mask0" mask-type="alpha" maskUnits="userSpaceOnUse" x="0" y="0" width="24" height="24">
<circle cx="12" cy="12" r="12" fill="url(#paint1_linear)"/>
</mask>
<g mask="url(#mask0)">
<g filter="url(#filter0_d)">
<path fill-rule="evenodd" clip-rule="evenodd" d="M13.2444 5.2571C12.9682 5.2571 12.7444 5.03324 12.7444 4.7571V3.77344C12.7444 3.4973 12.5205 3.27344 12.2444 3.27344H11.7568C11.4806 3.27344 11.2568 3.49729 11.2568 3.77344L11.2568 4.7571C11.2568 5.03324 11.0329 5.2571 10.7568 5.2571H9.77295C9.49681 5.2571 9.27295 5.48096 9.27295 5.7571V6.24471C9.27295 6.52085 9.49681 6.74471 9.77295 6.74471H10.7568C11.0329 6.74471 11.2568 6.96856 11.2568 7.24471L11.2568 8.22798C11.2568 8.50413 11.4806 8.72798 11.7568 8.72798H12.2444C12.5205 8.72798 12.7444 8.50413 12.7444 8.22798V7.24471C12.7444 6.96856 12.9682 6.74471 13.2444 6.74471H14.2275C14.5036 6.74471 14.7275 6.52085 14.7275 6.24471V5.7571C14.7275 5.48096 14.5036 5.2571 14.2275 5.2571H13.2444Z" fill="url(#paint2_linear)"/>
</g>
<g opacity="0.6" filter="url(#filter1_d)">
<rect x="13.6362" y="10.9102" width="5.45455" height="15.2727" rx="2" fill="url(#paint3_linear)"/>
</g>
<g filter="url(#filter2_d)">
<rect x="4.36377" y="10.9102" width="12" height="15.2727" rx="2" fill="url(#paint4_linear)"/>
</g>
</g>
<defs>
<filter id="filter0_d" x="5.27295" y="3.27344" width="13.4545" height="13.4545" filterUnits="userSpaceOnUse" color-interpolation-filters="sRGB">
<feFlood flood-opacity="0" result="BackgroundImageFix"/>
<feColorMatrix in="SourceAlpha" type="matrix" values="0 0 0 0 0 0 0 0 0 0 0 0 0 0 0 0 0 0 127 0"/>
<feOffset dy="4"/>
<feGaussianBlur stdDeviation="2"/>
<feColorMatrix type="matrix" values="0 0 0 0 0.143767 0 0 0 0 0.704167 0 0 0 0 0.617685 0 0 0 0.37 0"/>
<feBlend mode="normal" in2="BackgroundImageFix" result="effect1_dropShadow"/>
<feBlend mode="normal" in="SourceGraphic" in2="effect1_dropShadow" result="shape"/>
</filter>
<filter id="filter1_d" x="9.63623" y="10.9102" width="13.4545" height="23.2727" filterUnits="userSpaceOnUse" color-interpolation-filters="sRGB">
<feFlood flood-opacity="0" result="BackgroundImageFix"/>
<feColorMatrix in="SourceAlpha" type="matrix" values="0 0 0 0 0 0 0 0 0 0 0 0 0 0 0 0 0 0 127 0"/>
<feOffset dy="4"/>
<feGaussianBlur stdDeviation="2"/>
<feColorMatrix type="matrix" values="0 0 0 0 0.143767 0 0 0 0 0.704167 0 0 0 0 0.617685 0 0 0 0.37 0"/>
<feBlend mode="normal" in2="BackgroundImageFix" result="effect1_dropShadow"/>
<feBlend mode="normal" in="SourceGraphic" in2="effect1_dropShadow" result="shape"/>
</filter>
<filter id="filter2_d" x="0.36377" y="10.9102" width="20" height="23.2727" filterUnits="userSpaceOnUse" color-interpolation-filters="sRGB">
<feFlood flood-opacity="0" result="BackgroundImageFix"/>
<feColorMatrix in="SourceAlpha" type="matrix" values="0 0 0 0 0 0 0 0 0 0 0 0 0 0 0 0 0 0 127 0"/>
<feOffset dy="4"/>
<feGaussianBlur stdDeviation="2"/>
<feColorMatrix type="matrix" values="0 0 0 0 0.143767 0 0 0 0 0.704167 0 0 0 0 0.617685 0 0 0 0.37 0"/>
<feBlend mode="normal" in2="BackgroundImageFix" result="effect1_dropShadow"/>
<feBlend mode="normal" in="SourceGraphic" in2="effect1_dropShadow" result="shape"/>
</filter>
<linearGradient id="paint0_linear" x1="12" y1="0" x2="12" y2="24" gradientUnits="userSpaceOnUse">
<stop stop-color="#4CE8D0"/>
<stop offset="1" stop-color="#1DC6AC"/>
</linearGradient>
<linearGradient id="paint1_linear" x1="12" y1="0" x2="12" y2="24" gradientUnits="userSpaceOnUse">
<stop stop-color="#4CE8D0"/>
<stop offset="1" stop-color="#1DC6AC"/>
</linearGradient>
<linearGradient id="paint2_linear" x1="11.7523" y1="3.27344" x2="11.7523" y2="8.23212" gradientUnits="userSpaceOnUse">
<stop stop-color="white"/>
<stop offset="1" stop-color="#C6FFF6"/>
</linearGradient>
<linearGradient id="paint3_linear" x1="16.3635" y1="10.9102" x2="16.3635" y2="26.1829" gradientUnits="userSpaceOnUse">
<stop stop-color="white"/>
<stop offset="1" stop-color="#C6FFF6"/>
</linearGradient>
<linearGradient id="paint4_linear" x1="10.3638" y1="10.9102" x2="10.3638" y2="26.1829" gradientUnits="userSpaceOnUse">
<stop stop-color="white"/>
<stop offset="1" stop-color="#C6FFF6"/>
</linearGradient>
</defs>
</svg>
