<?xml version="1.0" standalone="no"?><!DOCTYPE svg PUBLIC "-//W3C//DTD SVG 1.1//EN" "http://www.w3.org/Graphics/SVG/1.1/DTD/svg11.dtd"><svg t="1630545439359" class="icon" viewBox="0 0 1024 1024" version="1.1" xmlns="http://www.w3.org/2000/svg" p-id="3085" xmlns:xlink="http://www.w3.org/1999/xlink" width="200" height="200"><defs><style type="text/css"></style></defs><path d="M0 512c0 282.624 229.376 512 512 512s512-229.376 512-512S794.624 0 512 0 0 229.376 0 512z" fill="#2775C9" p-id="3086"></path><path d="M481.28 321.877333v-32.085333c0-17.066667 13.653333-30.72 30.72-30.72s30.72 13.653333 30.72 30.72v31.744c55.637333 8.192 93.525333 39.936 103.765333 84.992 2.048 9.898667-3.754667 19.456-13.653333 21.845333-1.365333 0.341333-2.730667 0.341333-4.096 0.341334h-16.725333c-13.312 0-25.6-7.850667-31.402667-19.797334-10.581333-22.528-35.84-35.498667-69.290667-35.498666-41.984 0-69.973333 20.48-69.973333 51.2 0 24.576 18.773333 38.912 64.170667 49.834666l42.666666 9.898667c75.093333 17.066667 106.837333 48.128 106.837334 103.424 0 61.098667-42.666667 102.4-112.64 112.298667v36.864c0 17.066667-13.653333 30.72-30.72 30.72s-30.72-13.653333-30.72-30.72v-36.522667c-62.122667-7.509333-104.106667-40.277333-113.664-90.453333-1.706667-8.192 3.754667-16.384 11.946666-17.749334 1.024-0.341333 2.048-0.341333 3.072-0.341333h25.258667c11.264 0 21.845333 6.485333 26.624 16.725333 11.605333 24.576 41.301333 39.594667 78.506667 39.594667 44.714667 0 75.776-22.186667 75.776-52.906667 0-26.624-19.114667-41.984-65.536-53.248l-48.128-11.264c-68.266667-15.701333-100.693333-48.469333-100.693334-101.376 0.341333-56.661333 43.349333-97.621333 107.178667-107.52zM128 512c0-169.301333 110.592-313.002667 263.850667-363.52 9.557333-3.072 20.138667 2.048 23.210666 11.605333 0.682667 1.706667 1.024 3.754667 1.024 5.802667v10.922667c0 16.384-9.898667 31.402667-25.258666 37.546666-117.76 47.786667-201.045333 162.816-201.045334 297.642667 0 134.485333 82.944 249.856 200.704 297.301333 15.36 6.144 25.6 21.162667 25.6 37.888v8.874667c0 10.922667-8.874667 19.456-19.456 19.456-2.048 0-4.096-0.341333-6.144-1.024-152.576-50.176-262.485333-193.536-262.485333-362.496z m768 0c0 168.618667-109.226667 311.637333-261.12 362.496-10.581333 3.754667-22.186667-2.048-25.941333-12.629333-0.682667-2.048-1.024-4.437333-1.024-6.485334v-7.168c0-17.066667 10.24-32.426667 25.941333-38.912 117.418667-47.786667 200.362667-162.816 200.362667-297.301333 0-134.144-82.602667-249.173333-200.021334-296.96-16.042667-6.485333-26.282667-22.186667-26.282666-39.253333v-6.485334c0-11.264 9.216-20.48 20.48-20.48 2.389333 0 4.437333 0.341333 6.485333 1.024 151.893333 50.858667 261.12 193.877333 261.12 362.154667z" fill="#FFFFFF" p-id="3087"></path></svg>