<?xml version="1.0" standalone="no"?><!DOCTYPE svg PUBLIC "-//W3C//DTD SVG 1.1//EN" "http://www.w3.org/Graphics/SVG/1.1/DTD/svg11.dtd"><svg t="1630550116417" class="icon" viewBox="0 0 1024 1024" version="1.1" xmlns="http://www.w3.org/2000/svg" p-id="5891" xmlns:xlink="http://www.w3.org/1999/xlink" width="200" height="200"><defs><style type="text/css"></style></defs><path d="M513.937395 187.472357c-2.471584 1.8965-6.049886 5.395568-7.951498 7.777695-1.901612 2.382127-5.007067 4.976396-6.901012 5.768734-1.893944 0.789782-3.442838 2.052412-3.442837 2.803856 0 0.753999-3.946356 5.231989-8.771952 9.955347-4.825596 4.723359-9.436494 9.85311-10.24928 11.399448-0.812786 1.546338-2.075415 2.811523-2.806411 2.811523-0.730996 0-6.66331 5.405792-13.180931 12.012871s-16.375844 16.288942-21.904321 21.513264c-11.854404 11.202641-10.116371 9.467165-22.009113 21.960551-5.231989 5.497806-9.656304 10.645449-9.832663 11.442898-0.173803 0.79745-2.338676 2.632608-4.807705 4.081821-2.471584 1.446656-5.12464 3.534851-5.89653 4.639013-0.774447 1.104162-4.475434 5.231989-8.227539 9.173233-3.749549 3.941244-6.819221 7.632007-6.819221 8.199423 0 0.569972-0.585308 1.035152-1.300969 1.035152s-5.201318 3.9438-9.968127 8.764284c-4.76681 4.820484-9.932344 9.431382-11.478682 10.24928-1.546338 0.817898-2.811523 2.218547-2.811523 3.115678 0 0.894576-4.255624 5.886307-9.456941 11.092737a1333.870882 1333.870882 0 0 0-10.990499 11.079957c-0.843457 0.889464-4.467766 4.281183-8.053736 7.539993a1117.866678 1117.866678 0 0 0-8.549586 7.826258c-4.838376 4.539332 2.688838 15.688299 17.827612 26.400201 3.20258 2.26711 5.962985 4.697799 6.134232 5.403237 0.483071 1.998737 14.241642 16.899809 15.606509 16.899809 1.428765 0 5.661385 4.283739 5.661385 5.727839 0 0.546969 3.251143 3.969359 7.225614 7.601336 10.320846 9.43905 15.425038 14.568801 18.221226 18.318351 3.552743 4.756586 6.998136 5.804517 10.27995 3.125902 1.436433-1.173172 3.417278-2.400018 4.401312-2.724621 0.984033-0.327159 1.789151-1.01726 1.789151-1.533558 0-0.907355 16.971376-18.113876 23.074936-23.394428 1.648575-1.426209 6.676089-6.81411 11.174527-11.971976 4.498437-5.160423 8.723389-9.398155 9.387931-9.421158 0.664542-0.023003 1.487551-0.920135 1.830046-1.993626 0.339939-1.076047 1.865829-2.750181 3.391719-3.72399 1.523334-0.973809 5.300999-4.299074 8.393674-7.389194s7.355967-6.773215 9.474833-8.181532c2.118866-1.408317 4.102268-3.557855 4.406423-4.777033 0.595532-2.366791 20.066607-22.027005 21.817419-22.027005 0.572528 0 1.630683-1.122053 2.351456-2.492032 0.720772-1.372534 5.56426-6.428164 10.765577-11.238424 5.198762-4.81026 14.351547-14.039724 20.340091-20.511339 5.985988-6.471615 11.509353-11.764946 12.271021-11.764946 0.761667 0 1.38787-0.345051 1.392981-0.766779 0.010224-1.285633 20.825718-22.389947 22.763113-23.080048 0.996813-0.352718 2.093307-1.372534 2.433246-2.261998 0.342495-0.889464 7.003248-8.130413 14.801391-16.08958 16.465301-16.802684 16.633993-17.23208 9.692086-24.91265-10.58155-11.703604-23.926061-24.741403-26.908831-26.282629-1.77126-0.915023-3.501624-2.55593-3.846675-3.644756-0.572528-1.799375-36.32999-38.039907-39.547905-40.079539-2.757849-1.748256-6.798774-0.830677-11.194974 2.54315M138.159448 224.576794c0.125241 2.458805 0.470291 2.980214 1.441544 2.175096 1.45688-1.206399 1.768704-4.299074 0.342495-3.417278-0.513742 0.316935-1.162948 0-1.441545-0.707993-0.278596-0.705437-0.431952 0.171247-0.342494 1.950175m-42.280195 67.341089c-1.196175 2.231327-1.162948 2.808967 0.240257 4.209616 2.062636 2.065191 3.864566 0.984033 3.864566-2.315672 0-1.423653-0.447288-2.27989-1.009592-1.932283-0.580196 0.35783-0.751443-0.051119-0.403837-0.96103 1.001925-2.609605-1.198731-1.794263-2.691394 0.999369m544.786266 15.649959c-2.093307 0.968697-7.470984 5.939981-12.388593 11.453123-4.779589 5.357229-12.235237 12.846104-16.570095 16.639104-4.332301 3.795556-10.364296 10.019246-13.400741 13.830138-3.036445 3.810892-7.092706 7.68057-9.014765 8.595593-1.919503 0.917579-4.339969 2.934208-5.375121 4.483101-2.182764 3.266479-13.551541 14.61992-19.762451 19.736892-2.3489 1.932283-5.035182 5.127196-5.975765 7.100373-0.938026 1.970622-4.695243 5.983432-8.350223 8.920196s-8.945755 7.701017-11.757279 10.589219c-2.811523 2.888201-9.827551 10.009022-15.591173 15.828874-5.763622 5.817297-10.479313 10.987943-10.479313 11.48635 0 0.498406-3.266479 3.649868-7.258841 7.003248-7.989837 6.711872-12.718308 11.302323-31.335703 30.425792-6.888231 7.074814-12.524057 13.295948-12.524057 13.825025 0 0.529078-3.419834 3.534851-7.59878 6.681201-4.181502 3.14635-8.437125 6.913791-9.456941 8.375783-4.426871 6.323371-11.920858 14.402666-14.870401 16.023126-3.864566 2.126534-11.013503 8.955979-11.013503 10.522764 0 1.495219-10.926601 12.299135-14.824394 14.660814-3.731658 2.259442-9.712534 8.909972-9.712534 10.801361 0 0.756555-2.18532 3.154018-4.853711 5.33167-2.668391 2.175096-15.895329 15.036536-29.393196 28.58041-13.497867 13.541317-25.298596 24.897315-26.228954 25.232141-1.633239 0.59042-12.089549 12.769427-15.138774 17.633361-1.911836 3.046669-0.429396 6.139344 4.600674 9.584738 1.945063 1.33164 3.537407 3.000662 3.537408 3.706099s1.853049 2.83197 4.115047 4.725914c8.945755 7.478651 21.444253 19.680661 21.444253 20.933067 0 0.72844 3.335489 4.194281 7.409641 7.703574 4.076708 3.506736 9.252467 8.426901 11.501685 10.934268 2.251774 2.504811 5.155311 5.523365 6.453724 6.704205 1.298412 1.183396 5.71506 5.485026 9.812215 9.561734 10.282507 10.22372 10.193049 10.239056 24.628942-4.276071 6.392381-6.428164 12.398817-12.87422 13.349623-14.323432 0.950806-1.451768 3.166797-3.355936 4.925277-4.235176 1.75848-0.87924 6.187907-5.076077 9.842887-9.329145 7.453092-8.672271 6.993025-8.217315 17.078724-16.933036 4.048593-3.501624 8.756616-8.306773 10.458866-10.67612 1.699693-2.369347 4.360417-5.129752 5.90931-6.134232 3.608973-2.338676 11.655041-10.504872 18.182887-18.451259 2.811523-3.424946 6.34893-6.762991 7.86204-7.422421 1.510555-0.656874 6.49973-5.523365 11.085069-10.809028 4.582783-5.288219 8.881857-9.615409 9.548955-9.615409 0.667098 0 4.651793-3.703543 8.851185-8.227539 9.41349-10.14193 14.152185-14.972638 22.850015-23.297302 3.721434-3.562966 6.768103-6.834557 6.768103-7.271621 0-0.43962 2.415354-2.931652 5.367453-5.541256 11.501685-10.170046 20.173956-18.584167 20.181624-19.583536 0.005112-0.575084 5.185982-5.817297 11.511909-11.64993 6.325927-5.832632 12.053766-11.918302 12.731087-13.523426 0.674766-1.605124 2.497144-3.493956 4.048593-4.196837 3.136126-1.421097 11.522133-9.661416 19.133693-18.803977 2.745069-3.294594 5.860748-6.469059 6.924014-7.059479 2.862642-1.582121 11.023726-9.720202 15.693411-15.647404 2.249218-2.854974 4.989175-5.497806 6.085669-5.873527 2.586601-0.881796 15.926-14.497235 18.011639-18.382249 0.881796-1.643463 2.952099-3.672871 4.600674-4.511216 3.583414-1.822378 15.7752-13.965602 15.7752-15.713858 0-0.674766 3.335489-4.058817 7.412198-7.519546 21.863426-18.558608 21.965663-18.844872 10.640336-30.006619a982.783219 982.783219 0 0 1-9.559178-9.513172c-1.01726-1.050487-8.058847-8.184088-15.64996-15.849322-7.591112-7.665234-17.842948-18.190554-22.781004-23.391872-4.940613-5.198762-9.403267-9.454385-9.917009-9.454385-0.516298 0-2.599381-1.988514-4.631345-4.416647-5.735507-6.862672-8.365559-8.079295-12.920226-5.973209m-371.685904 124.504465a34.980459 34.980459 0 0 1-4.204505 4.856267c-1.300968 1.198731-7.642231 7.355967-14.093398 13.681893-6.451167 6.325927-11.938749 11.501685-12.191786 11.501686-0.35783 0-14.039724 13.060803-21.694735 20.710701-7.578333 7.573221-20.345203 21.771412-20.892172 23.228292-0.38339 1.022372-1.188507 2.162317-1.789151 2.535483-2.387239 1.474772-0.771891 4.388532 6.318259 11.39178a807.492424 807.492424 0 0 1 12.66719 12.810321c2.888201 3.021109 8.357891 8.250542 12.153447 11.62437 3.795556 3.373828 8.002617 7.877376 9.352148 10.009022 1.349531 2.12909 3.470953 4.268403 4.715691 4.75403 1.244738 0.483071 5.252436 4.2454 8.907416 8.355335 20.812938 23.409763 25.101789 25.543965 33.646263 16.754122 3.005774-3.092675 6.085669-5.623046 6.842225-5.623046 0.756555 0 2.072859-1.344419 2.921428-2.990438 2.1981-4.247956 16.263383-18.479374 18.264676-18.479375 0.920135 0 1.939951-1.065823 2.26711-2.366791 0.327159-1.303524 5.252436-6.709316 10.941937-12.012871 5.692056-5.306111 11.069733-10.484425 11.951529-11.509353 0.87924-1.024928 5.165535-5.418572 9.523395-9.761097 10.783469-10.747686 10.285063-14.696598-3.389163-26.87816-4.002586-3.565522-7.808366-7.064591-8.460129-7.775139-8.756616-9.56429-23.01615-23.754814-23.867275-23.754814-0.605755 0-2.369347-1.725253-3.915684-3.833895-3.478621-4.736138-14.320876-15.14133-18.187999-17.451891-1.577009-0.943138-4.2454-3.859454-5.927201-6.481838-4.360417-6.796218-8.639044-7.984725-11.859516-3.294594m493.759679-1.106718c-1.231958 0.863904-3.023665 3.217916-3.979583 5.234545-0.955918 2.014073-3.143794 4.516328-4.863935 5.561704-3.355936 2.042188-17.996303 16.15859-17.996304 17.352209 0 0.396169-3.565522 3.798112-7.923383 7.560441-4.357861 3.764885-10.231388 9.451829-13.050579 12.64163-2.821747 3.189801-9.26269 9.697199-14.313208 14.461452-5.053074 4.764254-9.817327 9.883781-10.586662 11.371333-0.771891 1.490107-2.91376 3.57319-4.759142 4.628789-3.698431 2.113754-19.910695 18.970113-19.910695 20.697922 0 0.598088-1.035152 1.638351-2.300337 2.31056-2.40513 1.280521-21.349684 19.039123-22.236592 20.846166-0.281152 0.569972-4.828152 5.170646-10.103591 10.22372-5.27544 5.050518-10.696567 10.926601-12.048654 13.058247-1.354643 2.12909-3.478621 4.265847-4.723359 4.748918-1.244738 0.483071-6.103561 4.950837-10.796249 9.929788-10.553435 11.192418-10.172602 10.816696-18.402696 18.200778-3.729102 3.343157-8.626264 8.184088-10.880594 10.755353-2.25433 2.56871-8.513803 8.802623-13.909371 13.853141-5.393012 5.050518-10.052473 9.929788-10.348961 10.844811-0.299044 0.915023-2.785964 3.445394-5.528477 5.623047-4.194281 3.332933-8.255654 7.51699-20.202071 20.828274-0.756555 0.843457-4.311854 4.01281-7.902936 7.041587-3.591082 3.028777-8.77962 8.089519-11.534912 11.246092-2.752737 3.156574-5.513141 5.968097-6.134232 6.249249-1.62046 0.733552-17.814832 17.661477-20.409102 21.334348-1.203843 1.702249-3.21536 3.565522-4.470321 4.140607-1.257518 0.575084-5.628158 4.598118-9.712534 8.935531-8.048624 8.54703-12.483162 12.994348-19.049347 19.113245-6.356598 5.92209-5.456911 8.846074 5.996212 19.471075 5.237101 4.858823 15.251235 14.944523 18.717076 18.849984 0.830677 0.93547 6.044775 6.187907 11.588586 11.667821 5.543812 5.48247 11.389224 11.578363 12.989237 13.546429 1.602568 1.970622 3.468397 3.580858 4.148274 3.580858s5.410904 4.37064 10.515097 9.712534c11.839068 12.388593 11.235868 12.414152 24.069193-1.022372 5.638382-5.904198 10.80136-10.734906 11.47357-10.734906 1.239626 0 5.669053-4.196837 5.669053-5.370009 0-1.329084 16.971376-18.402696 19.115801-19.230818 1.23707-0.477959 3.05178-2.152093 4.033257-3.72399 2.530371-4.051149 14.929187-16.659552 16.3784-16.659552 0.667098 0 2.282446-1.451768 3.591082-3.228139 3.197468-4.345081 20.076831-21.336904 23.591234-23.752258 1.546338-1.063267 2.811523-2.47414 2.811523-3.13357 0-0.661986 4.485657-5.48247 9.968127-10.711903a4926.81076 4926.81076 0 0 0 10.627557-10.15471c1.423653-1.403206 46.696842-46.719845 47.629757-47.678319 1.083714-1.11183 19.396953-19.256377 23.37398-23.156727 1.346975-1.321416 5.776402-5.968097 9.845443-10.325957s7.948942-7.923383 8.618596-7.923383 2.290113-1.431321 3.598749-3.179577c2.024297-2.709286 9.303585-10.182825 23.287079-23.913282 1.717585-1.686914 7.37897-7.343187 12.577732-12.57262 5.198762-5.226877 10.832032-10.816696 12.518945-12.419264 1.686914-1.605124 6.216022-6.412828 10.062697-10.688899 3.846675-4.273515 7.527214-7.790475 8.178976-7.816034 0.651762-0.028115 2.10353-1.265185 3.228139-2.750181 4.115047-5.436463 19.322831-20.718369 20.618688-20.718369 0.733552 0 2.601937-1.955286 4.150831-4.345081 1.548894-2.389795 3.261367-4.662016 3.805779-5.050518 16.475525-11.70616 17.643585-18.149659 5.441575-30.004063-4.651793-4.52144-17.888954-17.796941-29.416198-29.5031-11.527245-11.70616-23.258963-23.131167-26.070487-25.388053-2.811523-2.256886-6.642862-5.888863-8.513803-8.069072-3.685651-4.296518-6.484395-4.958504-10.14193-2.397462" fill="#FBFBF9" p-id="5892"></path><path d="M495.897641 29.797032c-2.389795 0.546969-4.345081 1.311192-4.345081 1.70225 0 0.388501-7.596224 0.541857-16.879362 0.34505-9.283138-0.199363-17.679368-0.017892-18.65829 0.401281s-3.619197 0.889464-5.868415 1.045376c-14.267202 0.991701-20.958626 2.959767-20.958627 6.170015 0 0.978921-0.861348 1.211511-2.949543 0.792338-1.67669-0.334827-4.431983 0.06901-6.389825 0.938027-6.1419 2.729733-7.409641 2.977659-16.012902 3.148905-7.966834 0.155912-11.332994 1.423653-9.906785 3.734214 0.214698 0.345051-0.851125 0.4524-2.366791 0.235146-2.872865-0.408949-9.814771 2.014073-10.926601 3.816003-0.352718 0.569972-2.175096 1.037708-4.046037 1.037708-1.873497 0-4.485657 0.874128-5.801961 1.942507-1.699693 1.37509-3.373828 1.781483-5.738063 1.398094-1.835158-0.296488-3.338045-0.117573-3.338045 0.398725s-1.027484 1.014704-2.285001 1.109273c-1.257518 0.094569-2.428134 0.603199-2.604493 1.132277-0.176359 0.526522-1.129721 0.746332-2.121422 0.488183-1.206399-0.314379-2.195544 0.396169-2.99555 2.152093-0.899687 1.975734-1.960398 2.62494-4.283739 2.62494-1.699693 0-3.090119 0.444732-3.090119 0.989145 0 0.546969-0.690101 0.725884-1.533558 0.403837-0.843457-0.324603-1.533558-0.079234-1.533558 0.541857 0 0.623647-0.920135 1.132277-2.044744 1.132277-1.124609 0-2.044744 0.444732-2.044744 0.989145 0 0.546969-0.677321 0.730996-1.505443 0.414061-2.466472-0.94825-7.785363 1.855605-6.489506 3.419834 1.254962 1.510555-0.007668 1.715029-2.164873 0.350163-0.996813-0.631315-2.26711-0.3016-3.954024 1.024928-1.367423 1.073491-2.893313 1.699693-3.396831 1.390426-1.369979-0.848569-4.981508 0.557193-4.984064 1.937395 0 0.664542-1.495219 1.311192-3.322709 1.433876-1.824934 0.125241-4.010254 1.055599-4.853711 2.070304-0.843457 1.014704-2.338676 1.684358-3.322709 1.490107-2.03452-0.406393-2.456249 1.398094-0.511186 2.182764 0.79745 0.322047 0.636427 0.546969-0.42684 0.595532-0.93547 0.046007-1.934839-0.493294-2.218548-1.196175-0.283708-0.702881-0.552081-0.166135-0.595531 1.193619-0.046007 1.357199-0.368054 2.18532-0.715661 1.835158-0.350162-0.350162-2.297781 0.493294-4.327189 1.873496-2.031964 1.380202-4.679908 2.509923-5.886307 2.509924s-2.793632 0.723328-3.527184 1.60768c-0.733552 0.884352-3.092675 2.504811-5.2371 3.598749-2.146981 1.096494-3.902905 2.469028-3.902905 3.054337 0 0.582752-0.536745 0.730996-1.191064 0.324603-0.695213-0.429396-2.233883 0.506074-3.690763 2.238994-1.37509 1.638351-2.18532 2.287557-1.799375 1.444101 0.38339-0.843457-0.293932-0.268373-1.507998 1.277965-1.211511 1.546338-3.087563 2.811523-4.16361 2.811523-1.778927 0-2.453693 1.114386-2.054968 3.399387 0.079234 0.462623-0.329715 0.549525-0.909911 0.189139-0.580196-0.35783-1.336751 0.08179-1.679246 0.978921-0.429396 1.116941-1.308636 1.418541-2.803855 0.958474-1.198731-0.368054-1.824934-0.293932-1.392982 0.161023 0.431952 0.454956-0.94825 1.628127-3.067116 2.604493-2.118866 0.976365-5.431351 3.192357-7.361079 4.922721-1.929727 1.727809-3.910573 3.143794-4.406423 3.143794-0.493294 0-0.615979 0.454956-0.273485 1.009593 0.345051 0.559749-0.020447 0.764223-0.817897 0.457511-0.794894-0.304156-2.839638 0.621091-4.547 2.057524-1.704805 1.433877-3.537407 2.609605-4.069041 2.609604-0.529078 0-1.490107 1.150169-2.129089 2.55593-0.641538 1.405762-1.661355 2.55593-2.269666 2.555931s-0.774447 0.575084-0.368054 1.277965c0.403837 0.702881 0.368054 0.945694-0.08179 0.541857-1.091382-0.986589-6.668421 3.056892-6.668421 4.835819 0 0.771891-0.470291 1.694582-1.047932 2.049856-0.575084 0.355274-0.981477 0.268373-0.902243-0.19425 0.411505-2.359123-0.42684-2.049856-3.936132 1.45688-2.113754 2.108642-5.106748 4.75403-6.65053 5.878639-1.543782 1.124609-2.962323 3.156574-3.148906 4.516328-0.191695 1.403206-1.11183 2.584045-2.123978 2.734845-0.984033 0.143132-2.32334 0.94825-2.980214 1.789151-0.654318 0.843457-3.261367 2.673503-5.791738 4.069041s-4.475434 2.821747-4.324634 3.169353c0.322047 0.72844-2.067747 3.529739-2.83197 3.322709-1.001925-0.273485-5.11186 3.879902-5.11186 5.162979a1.03004 1.03004 0 0 1-1.277965 1.050487c-0.702881-0.140576-1.178284 0.27604-1.053043 0.927803 0.273485 1.449212-6.985357 9.551511-8.557254 9.55151-1.357199 0-3.514404 2.446025-3.785333 4.293963-0.107349 0.730996-0.470291 1.329084-0.807673 1.329084-0.334827 0-2.167429 1.84027-4.069041 4.089488-1.904168 2.249218-4.268403 5.009623-5.254992 6.134232-0.986589 1.124609-1.75848 2.423022-1.715029 2.885645 0.040895 0.462623-1.129721 1.960398-2.607049 3.327821-1.474772 1.367423-2.397462 2.944431-2.052412 3.50418 0.345051 0.559749 0.166135 1.01726-0.401281 1.01726-1.441545 0-6.747655 5.058186-6.803886 6.489506-0.025559 0.64665-0.600644 1.063267-1.277965 0.922691-0.677321-0.140576-1.231958 0.462623-1.231958 1.339307s0.460067 1.308636 1.022372 0.96103c1.750812-1.081158 1.119497 2.226215-0.707993 3.708655-1.15528 0.93547-1.474772 0.981477-0.966141 0.132908 0.419173-0.697769 0.291376-2.077971-0.283708-3.067116-0.869016-1.490107-1.053043-1.221735-1.078603 1.574453-0.020447 2.256886-0.876684 4.155942-2.586601 5.740619-1.405762 1.303524-2.55593 2.640276-2.55593 2.972546 0 0.329715-1.047931 1.658799-2.331008 2.949544-1.280521 1.290745-3.013442 3.266479-3.849231 4.391088-0.835789 1.124609-2.430689 2.56871-3.547631 3.207692-1.116941 0.641538-1.950175 1.996181-1.853049 3.013441 0.094569 1.01726-0.465179 2.333564-1.247294 2.92654-1.658799 1.257518-6.852448 10.788581-5.878639 10.788581 0.362942 0-0.398725 1.127165-1.692026 2.504811-1.293301 1.37509-2.090751 3.182133-1.771259 4.012811 0.626203 1.635795-1.612792 4.120159-2.716954 3.015997-0.37061-0.37061-0.67221-0.135464-0.67221 0.518854 0 0.656874 0.483071 1.193619 1.073491 1.193619 0.592976 0-0.153356 1.610236-1.653687 3.578302-1.500331 1.968066-2.389795 3.578302-1.970622 3.578302 0.416617 0 0.184027 0.690101-0.516298 1.533558-0.700325 0.843457-0.899687 1.533558-0.442176 1.533558s-0.058786 0.723328-1.152724 1.610236c-1.091382 0.884352-1.293301 1.265185-0.449844 0.846013 1.275409-0.633871 1.257518-0.431952-0.099681 1.201287-2.006405 2.415354-3.348268 5.899087-1.932283 5.024959 0.562305-0.347606 1.009592 0.50863 1.009592 1.932283 0 3.629421-2.03452 4.444762-4.255623 1.702249l-1.878609-2.320784v2.829414c0 1.556561-1.083714 4.250512-2.407686 5.9911-1.326528 1.740588-2.737401 4.199393-3.136126 5.464579-0.401281 1.265185-1.114386 2.300337-1.584677 2.300337-0.472847 0-1.185952 2.387239-1.589788 5.308666-0.401281 2.918872-1.390426 5.968097-2.1981 6.775771-0.807674 0.807674-1.260074 2.019185-1.001925 2.688838 0.258149 0.67221-0.406393 1.766148-1.474771 2.433246-1.068379 0.667098-1.942507 2.111198-1.942507 3.210248 0 1.096494-0.958474 2.888201-2.12909 3.979583-1.188507 1.109274-2.374459 3.828783-2.688838 6.172571-0.309268 2.305449-0.917579 4.191725-1.352087 4.191725-1.175728 0-3.031333 5.973209-3.031333 9.755985 0 2.003849-0.605755 3.547631-1.533558 3.905462-0.999369 0.38339-1.533558 1.973178-1.533558 4.572558 0 2.469028-0.79745 4.996843-2.100975 6.653086-1.15528 1.46966-2.200656 4.235176-2.32334 6.144456-0.122685 1.90928-0.853681 4.230064-1.623016 5.157867-0.902243 1.08627-1.438989 4.585339-1.510554 9.837775-0.071566 5.359785-0.50863 8.153417-1.277965 8.155973-1.554005 0.002556-2.609605 4.480545-1.807043 7.670346 0.421728 1.684358 0.214698 2.55593-0.610867 2.55593-0.720772 0-1.040264 0.812786-0.751444 1.914391 0.37061 1.423653 0.048563 1.796819-1.252405 1.45688-1.45688-0.380834-1.952731 0.748888-2.936764 6.716985-1.45688 8.815403-1.520778 14.448673-0.16358 14.448672 0.562305 0 1.022372 0.690101 1.022372 1.533558 0 0.843457-0.460067 1.533558-1.022372 1.533558-0.562305 0-1.022372 0.828121-1.022372 1.84027 0 1.012148-0.552081 2.392351-1.22429 3.06456-0.674766 0.674766-1.561673 4.102268-1.970622 7.616671a257.016658 257.016658 0 0 1-1.837714 12.526614c-1.809598 10.190493-1.45688 82.063246 0.431952 87.412807 0.843457 2.389795 1.533558 6.589188 1.533558 9.329145 0 2.742513 0.347606 4.984064 0.774447 4.984064 0.42684 0 0.794894 2.18532 0.817898 4.856267 0.130352 14.714489 3.703543 34.533171 6.062666 33.628371 0.881796-0.337383 1.145057 0.145688 0.800006 1.464548-0.283708 1.081158-0.079234 1.968066 0.449844 1.968066 0.531633 0 0.782115 1.265185 0.559748 2.811523a6.024327 6.024327 0 0 0 1.454324 4.856267c1.408317 1.546338 1.950175 4.122715 2.226216 10.573883 0.199363 4.690132 1.001925 9.750873 1.781483 11.246092 0.779559 1.495219 1.421097 3.680539 1.426209 4.861379 0.002556 1.178284 0.784671 3.703543 1.738032 5.615379 0.950806 1.90928 1.638351 4.708023 1.520779 6.218577-0.143132 1.904168 0.380834 2.931652 1.707361 3.353381 1.45688 0.462623 2.052412 1.942507 2.492032 6.208354 0.345051 3.332933 1.413429 6.658198 2.640275 8.219871 1.132277 1.441545 1.837714 3.20258 1.56423 3.913129-0.779559 2.031964 1.415985 6.755323 3.141238 6.755323 0.894576 0 1.559117 0.902243 1.559117 2.111198 0 3.021109 1.947619 6.249249 3.276702 5.426239 0.621091-0.38339 0.851125-0.247925 0.511186 0.3016-0.337383 0.549525 0.084346 2.343788 0.940582 3.992363 1.004481 1.929727 1.438989 4.989175 1.224291 8.61604-0.322047 5.490138-0.255593 5.643494 2.785964 6.543181 3.14635 0.927803 5.574483 4.444762 5.574483 8.071627 0 2.673503 3.872234 7.877376 5.863304 7.877376 0.899687 0 1.349531 0.283708 1.001924 0.633871-0.347606 0.347606 0.035783 1.300968 0.851125 2.11631 0.817898 0.817898 1.484995 3.062004 1.484995 4.991732 0 1.927171 0.408949 3.50418 0.909911 3.50418 0.498406 0 0.843457 0.805118 0.766779 1.789151-0.079234 0.984033 0.337383 1.704805 0.922691 1.605124 0.585308-0.102237 1.139945 0.807674 1.231958 2.024296 0.092013 1.214067 0.876684 2.729733 1.745701 3.363604 0.869016 0.636427 1.579565 2.113754 1.579564 3.28437 0 1.173172 0.805118 2.732289 1.789152 3.465842 0.984033 0.736108 1.904168 1.90928 2.042188 2.609604 0.140576 0.700325 1.75848 3.460729 3.593637 6.134232 1.837714 2.673503 3.332933 5.781514 3.325265 6.906123-0.010224 1.323972 0.613423 1.993625 1.773816 1.901612 0.984033-0.076678 1.789151 0.434508 1.789151 1.137389 0 1.922059 8.4908 12.741311 10.029469 12.777094 0.736108 0.017892 1.08627 0.43962 0.777003 0.938027s0.125241 1.474772 0.96103 2.169984c0.838345 0.695213 1.523334 2.141869 1.523334 3.21536 0 1.076047 1.610236 3.565522 3.578302 5.533589 1.968066 1.968066 3.578302 4.048593 3.578302 4.626233 0 0.57764 0.460067 0.764223 1.022372 0.416617 0.562305-0.347606 1.022372-0.145688 1.022372 0.449844 0 0.595532 0.718216 1.083714 1.594901 1.083714 0.876684 0 1.341863 0.408949 1.032595 0.907355-0.309268 0.498406 0.125241 1.474772 0.96103 2.169985 0.838345 0.695213 1.523334 1.817266 1.523334 2.492031 0 0.677321 1.134833 2.297781 2.525259 3.601306 1.38787 1.30608 2.297781 2.737401 2.021741 3.184689-0.27604 0.444732 0.145688 1.183396 0.932914 1.638351 3.501624 2.026853 7.532326 9.957903 7.044143 13.86592-0.380834 3.041557-0.13802 3.833895 1.165505 3.833896 0.963586 0 1.646019-0.846013 1.646019-2.044745 0-2.520147 2.591713-2.686282 4.007698-0.255593 0.572528 0.984033 1.055599 1.464548 1.07349 1.068379 0.040895-0.958474 5.142531 4.171278 5.142532 5.173203 0 0.429396 3.795556 4.196837 8.434569 8.370671 4.639013 4.17639 9.035213 8.403898 9.77132 9.398154 0.733552 0.991701 2.180208 1.804487 3.210249 1.804487 1.132277 0 2.123978 0.981477 2.497143 2.469028 0.339939 1.357199 2.573822 3.997475 4.966172 5.868416 2.392351 1.873497 5.697168 4.902274 7.348299 6.734875 1.648575 1.832602 3.657536 3.330377 4.46521 3.330377 0.805118 0 3.036445 1.380202 4.958504 3.067116 1.922059 1.686914 3.938688 3.067116 4.480546 3.067116 0.541857 0 0.986589 0.674766 0.986589 1.497775 0 1.715029 6.844781 6.681201 9.211572 6.681202 0.869016 0 2.366791 0.920135 3.330376 2.044744 0.963586 1.124609 2.433245 2.044744 3.269035 2.044744 0.833233 0 3.606417 2.090751 6.164903 4.649236 2.55593 2.55593 5.081189 4.378308 5.610267 4.05115 0.531633-0.327159 1.901612 0.339939 3.046668 1.484995 1.145057 1.145057 2.584045 2.083083 3.197469 2.083083 1.799375 0 4.948281 4.401312 4.986619 6.970021 0.028115 1.97829 0.414061 2.25433 2.333564 1.671578 1.265185-0.38339 2.530371-0.700325 2.811524-0.700324 2.274778-0.015336 3.092675 0.391057 2.550818 1.267741-0.350162 0.564861 0.199363 1.336751 1.219178 1.712473 1.019816 0.375722 2.221103 1.290745 2.670947 2.037076 0.449844 0.743776 1.658799 1.354643 2.686283 1.354643 1.027484 0 2.400018 0.641538 3.05178 1.426209 0.651762 0.784671 2.870309 1.743144 4.930389 2.12909 2.06008 0.385945 4.674796 1.354643 5.814741 2.152093 1.137389 0.79745 3.115679 1.449212 4.3962 1.449212 1.602568 0 2.328452 0.603199 2.328452 1.934839 0 2.121422 1.893944 3.177021 5.707392 3.177021 1.359755 0 2.471584 0.475403 2.471584 1.055599 0 0.57764 0.805118 1.336751 1.789151 1.684358 0.984033 0.345051 3.315041 1.75848 5.178315 3.136127 2.412798 1.786595 5.211541 2.665835 9.712534 3.054336 4.296518 0.373166 6.908679 1.157836 8.153417 2.453693 1.004481 1.047931 2.228771 1.906724 2.719509 1.906724 0.493294 0 1.203843 1.84027 1.584677 4.089488 0.713104 4.224952 5.311223 6.054998 7.263953 2.893312 0.49585-0.802562 0.999369-0.498406 1.523334 0.915023 0.598088 1.62046 2.049856 2.287557 6.221134 2.854974 2.990438 0.406393 5.712504 1.170616 6.044775 1.697138 0.334827 0.526522 3.325265 1.226846 6.645418 1.556561 3.343157 0.332271 7.251174 1.446656 8.75406 2.497144 1.492663 1.045375 3.810892 1.899056 5.150199 1.899056 1.341863 0 4.242844 0.920135 6.448612 2.044744 2.205768 1.124609 4.774477 2.044744 5.709947 2.044744 0.93547 0 3.529739 0.644094 5.763623 1.433877 2.236439 0.789782 6.320815 1.5949 9.076107 1.789151 2.903537 0.20703 5.842856 1.106718 6.990469 2.144425 1.398094 1.262629 3.695875 1.789151 7.800698 1.789151 4.728471 0 6.078002 0.391057 7.217947 2.098419 1.257518 1.881165 2.793632 2.162317 14.694042 2.696506 8.033288 0.360386 14.382218 1.147613 16.05124 1.991069 1.518222 0.766779 5.428795 1.40065 8.690163 1.410874 3.261367 0.010224 9.15023 0.700325 13.086361 1.533558 10.055029 2.12909 60.703339 2.131646 69.521298 0.002556 3.373828-0.815342 10.987943-1.497775 16.920257-1.518223 7.223058-0.023003 11.207753-0.457511 12.063989-1.313748 0.843457-0.843457 6.090781-1.451768 15.458265-1.789151 12.920226-0.465179 14.40011-0.71566 16.628881-2.811523 1.82749-1.717585 3.675427-2.300337 7.289513-2.300337 2.660723 0 6.313147-0.761667 8.112522-1.692026 3.350824-1.735477 17.022494-5.464578 20.030824-5.464578 0.920135 0 3.391719-0.920135 5.487581-2.044744 2.098419-1.124609 5.587263-2.044744 7.752136-2.044744 2.635164 0 4.544444-0.674766 5.78407-2.044744 1.08627-1.201287 3.154018-2.0473 5.014735-2.049856 1.740588-0.005112 4.544444-0.761667 6.231357-1.681802 1.686914-0.920135 5.477358-2.026853 8.424346-2.458805 5.408348-0.794894 10.22372-4.214729 11.795617-8.378338 0.401281-1.065823 1.738032-1.789151 3.302261-1.789151 1.446656 0 4.434539-0.920135 6.637751-2.044744 2.203212-1.124609 5.119528-2.044744 6.479282-2.044744s3.044113-0.690101 3.744438-1.533558c0.700325-0.843457 2.310561-1.533558 3.578302-1.533559 1.267741 0 2.877977-0.690101 3.578302-1.533558 0.700325-0.843457 2.71951-1.533558 4.488213-1.533558 3.657536 0 10.847367-4.429427 10.847367-6.681201 0-0.920135 0.996813-1.497775 2.589157-1.497775 1.421097 0 2.852418-0.690101 3.174466-1.533558 0.324603-0.843457 1.426209-1.533558 2.451136-1.533558 1.024928 0 2.481808-0.618535 3.238364-1.377646 0.759111-0.756555 3.092675-1.697138 5.185982-2.090751 2.095863-0.391057 3.808336-1.096494 3.808336-1.566785 0-0.467735 1.380202-1.423653 3.067116-2.121422 1.686914-0.697769 3.069672-1.559117 3.074784-1.914392 0.002556-0.352718 1.597456-1.725253 3.542519-3.049224 1.945063-1.326528 3.785332-3.192357 4.089488-4.153386 0.500962-1.574453 7.000692-5.196206 9.326588-5.196206 0.52141 0 2.205768-1.16806 3.746994-2.596825 1.541226-1.428765 2.808967-2.233883 2.816635-1.789151 0.007668 0.444732 0.352718 0.332271 0.766779-0.250481 1.589788-2.238995 6.739988-5.587263 8.590481-5.587263 1.068379 0 3.223028-1.308636 4.784701-2.908649 1.564229-1.600012 4.097156-3.223028 5.628158-3.606417 1.531002-0.385945 2.711842-1.262629 2.62494-1.947619-0.314379-2.453693 0.094569-3.918241 0.94825-3.391719 0.475403 0.293932 2.123978-0.779559 3.662648-2.384683 1.53867-1.605124 4.115047-3.182133 5.725283-3.50418 1.60768-0.322047 3.481177-1.638351 4.161054-2.923984 1.584677-2.99555 7.908048-9.329145 10.888262-10.903597 1.265185-0.669654 2.300337-1.661355 2.300337-2.203212 0-1.5949 3.412167-4.547 6.944462-6.011548 1.804487-0.746332 3.279258-1.720141 3.279258-2.167428 0-0.444732 2.530371-3.358492 5.623046-6.476727 3.092675-3.115679 5.623046-6.042219 5.623047-6.49973 0-0.457511 2.596825-3.123347 5.768734-5.92209 7.754692-6.842225 11.61159-10.934269 11.61159-12.317027 0-0.631315 0.93547-1.996181 2.080527-3.031333 1.145057-1.035152 1.858161-2.463917 1.587232-3.171909-0.273485-0.710549 0.401281-1.574453 1.49522-1.922059 1.096494-0.350162 1.993625-0.971253 1.993625-1.380203 0-0.945694 6.916347-8.015397 11.123408-11.373888 1.753368-1.398094 3.189801-3.251143 3.1898-4.117604 0-0.863904 0.920135-2.359123 2.044744-3.322709 1.124609-0.963586 2.044744-2.446025 2.044744-3.294594 0-0.848569 0.429396-1.543782 0.953362-1.543781s1.244738-1.035152 1.597457-2.300337c1.157836-4.132939 2.880533-6.901011 4.293962-6.901012 0.761667 0 1.669022-1.418541 2.016629-3.154017 0.347606-1.735477 1.254962-3.396831 2.019185-3.688207 0.764223-0.293932 1.38787-1.418541 1.38787-2.4997 0-1.083714 0.707993-2.238995 1.571897-2.571265 0.863904-0.332271 2.308005-2.042188 3.207692-3.800668 0.902243-1.761036 2.954655-4.713135 4.564891-6.561073 1.610236-1.847937 3.608973-4.838376 4.43965-6.645418 2.054968-4.470322 3.859454-7.215391 5.380233-8.1892 0.700325-0.447288 1.564229-2.632608 1.919504-4.856267 0.37061-2.310561 1.219179-4.040925 1.980845-4.040925 0.733552 0 1.630683-0.93547 1.993626-2.077972 0.362942-1.142501 1.755924-3.171909 3.095231-4.511216 1.339307-1.339307 2.757849-3.741882 3.156574-5.336782 0.396169-1.592344 1.564229-4.406423 2.596825-6.251805 1.032596-1.845381 1.893944-4.605786 1.916947-6.134232 0.023003-1.556561 1.37509-4.339969 3.067116-6.320815 1.66391-1.947619 3.028777-4.708023 3.031333-6.134232 0.005112-1.426209 0.695213-3.913129 1.533558-5.523365 0.840901-1.610236 1.536114-3.910573 1.543782-5.11186 0.020447-2.645388 0.984033-4.181502 3.120791-4.966172 1.597456-0.585308 4.756586-11.644817 3.644756-12.756647-0.306712-0.306712 0.661986-2.157205 2.152093-4.109936 2.054968-2.696506 2.819191-5.070965 3.161685-9.837774 0.250481-3.458173 1.037708-7.207723 1.748257-8.334888 0.710549-1.127165 1.62046-3.660092 2.02174-5.628158 0.401281-1.968066 1.165504-4.122715 1.699694-4.784701 0.534189-0.664542 1.23707-3.782776 1.561673-6.931682 0.324603-3.148906 0.986589-5.968097 1.467104-6.264585 0.483071-0.299044 0.89202-2.241551 0.912467-4.316966 0.017892-2.075415 0.922691-5.612822 2.008961-7.862041 1.157836-2.397462 1.988514-6.310591 2.008961-9.456941 0.020447-2.952099 0.38339-5.367453 0.807674-5.367453 3.169353 0 6.384713-18.103653 6.384713-35.956824 0-12.534281 0.322047-16.186705 1.579565-17.98608 2.481808-3.542519 0.437064-89.035823-2.208324-92.358532-0.626203-0.787226-1.408317-5.781514-1.738032-11.100404-0.477959-7.759804-0.976365-9.978351-2.520147-11.246092-1.983402-1.623016-5.33167-10.855035-5.341894-14.729825-0.005112-1.201287-0.695213-3.501624-1.533558-5.11186-0.938026-1.794263-1.531002-5.753399-1.536114-10.22372-0.005112-5.559148-0.488183-8.023064-2.037076-10.361741-1.116941-1.686914-2.03452-4.736138-2.037077-6.77577-0.005112-2.042188-0.697769-4.281183-1.541225-4.981508-0.927803-0.771891-1.533558-3.00833-1.533558-5.674165 0-2.550818-0.644094-5.047962-1.533558-5.937425-0.843457-0.843457-1.536114-2.371903-1.53867-3.394275-0.005112-1.024928-0.695213-3.182133-1.533558-4.792369-0.840901-1.610236-1.528446-4.508661-1.528446-6.440944 0-3.777665-2.48692-9.543843-4.115048-9.543843-0.549525 0-0.999369-0.575084-1.001924-1.277965-0.005112-0.702881-0.649206-2.504811-1.431321-4.005142-0.782115-1.500331-1.727809-4.53422-2.100975-6.742544-0.373166-2.208324-1.914392-5.372565-3.427502-7.031363-3.13357-3.437726-5.651161-11.105516-5.748287-17.510677-0.053675-3.51696-0.710549-4.999399-3.401943-7.66779-7.621783-7.555329-10.466534-11.440343-10.466533-14.295317 0-2.785964-0.618535-3.923353-4.196837-7.716353-0.904799-0.958474-2.448581-3.000662-3.43517-4.544443-0.986589-1.541226-2.172541-2.566154-2.63772-2.27989-0.465179 0.28882-1.165504-1.62046-1.559117-4.237732-0.600644-4.002586-1.18084-4.938057-3.644757-5.868415-1.610236-0.608311-2.929096-1.699693-2.929095-2.425578 0-0.725884-0.920135-2.106086-2.044744-3.069672-1.124609-0.963586-2.044744-2.540594-2.044744-3.506736 0-0.966142-0.460067-2.042188-1.022373-2.389795-0.562305-0.347606-1.022372-1.755924-1.022372-3.128458 0-1.507999-0.59042-2.494588-1.497775-2.494588-0.823009 0-1.99107-0.922691-2.594269-2.0473-0.603199-1.127165-2.458805-3.442838-4.125271-5.147643-1.666466-1.704805-3.028777-3.864566-3.028777-4.79748 0-2.0473-4.953392-7.432645-6.837113-7.432645-0.738664 0-1.341863-0.909911-1.341863-2.021741 0-1.11183-1.257518-2.837082-2.793631-3.833895-3.73677-2.423022-6.407717-5.137419-6.407717-6.515065 0-0.618535-2.083083-3.238363-4.631345-5.822409-2.548262-2.584045-4.897162-5.763622-5.224321-7.064591-0.345051-1.37509-1.630683-2.62494-3.07734-2.987882-2.489476-0.623647-7.514434-6.218578-7.514434-8.365559 0-0.628759-0.86646-1.60768-1.927172-2.175096-1.060711-0.567416-2.208324-2.149537-2.550818-3.511848-0.385945-1.546338-1.778927-2.885645-3.695875-3.552743-1.68947-0.59042-3.072228-1.556561-3.072228-2.146981 0-0.592976-1.150169-1.076047-2.55593-1.076047s-2.440913-0.35783-2.300337-0.794894c0.332271-1.037708-7.624339-8.994318-8.662047-8.662047-0.437064 0.140576-0.794894-0.971253-0.794894-2.471584 0-1.497775-0.278596-2.446025-0.621091-2.103531-0.342495 0.339939-1.832602-0.503518-3.312485-1.876053-1.479883-1.372534-3.261367-2.494588-3.959136-2.494587-0.697769 0-1.564229-1.173172-1.924615-2.607049-0.444732-1.776371-1.543782-2.783408-3.44795-3.164241-4.656905-0.930359-11.338106-7.555329-10.573882-10.481869 0.585308-2.231327 0.401281-2.389795-2.0473-1.776372-2.653055 0.667098-3.50418 0.191695-14.448673-8.066515-1.09905-0.830677-2.392351-1.507999-2.872865-1.507999-0.483071 0-2.985326-1.610236-5.56426-3.578302-2.576377-1.968066-5.308667-3.578302-6.07289-3.578302-0.761667 0-1.385314-0.460067-1.385314-1.022372 0-0.562305-0.886908-1.022372-1.973178-1.022372-1.24985 0-2.093307-0.820454-2.300337-2.238995-0.227478-1.548894-1.352087-2.504811-3.649868-3.097787-1.82749-0.470291-3.322709-1.329084-3.322709-1.90928 0-0.580196-0.42684-0.789782-0.94825-0.467735s-1.242182-0.339939-1.602568-1.472216c-0.360386-1.132277-1.070935-2.06008-1.577009-2.060079-1.346975 0-10.185381-6.382157-10.185381-7.353411 0-0.454956-0.692657-0.825565-1.53867-0.825565-0.846013 0-3.897793-1.139945-6.783439-2.530371-2.885645-1.392982-5.638382-2.287557-6.118896-1.99107-0.477959 0.296488-0.598088-0.171247-0.265817-1.040263 0.378278-0.986589-0.104793-1.817266-1.288189-2.221103-1.042819-0.352718-3.86201-1.554005-6.262028-2.665835-2.402574-1.11183-5.070965-1.753368-5.932314-1.421097-0.861348 0.329715-1.323972 0.209586-1.03004-0.265817 0.536745-0.869016-1.247294-1.878609-11.675488-6.614747-7.046699-3.20258-11.918302-4.764254-14.85251-4.764254-1.252406 0-2.877977-0.723328-3.608973-1.605124-0.733552-0.881796-2.134202-1.392982-3.115679-1.137389-1.150169 0.3016-1.605124 0-1.280521-0.846013 0.730996-1.901612-3.6422-4.59045-7.468427-4.59045-1.809598 0-3.596194-0.490739-3.966804-1.091382-0.37061-0.600644-1.31886-0.846013-2.10353-0.544413-0.787226 0.3016-1.431321 0.104793-1.431321-0.442176 0-0.544413-1.4441-0.989145-3.210248-0.989145-1.766148 0-3.721434-0.700325-4.347637-1.554005-0.623647-0.856237-2.591713-1.661355-4.37064-1.789151-1.778927-0.130352-3.156574-0.651762-3.064561-1.157837 0.168691-0.920135-13.554097-3.739326-14.798835-3.041557-0.360386 0.201918-2.793632-0.828121-5.405792-2.287557-2.655611-1.484995-5.638382-2.425578-6.757879-2.131646-1.104162 0.28882-2.006405 0.051119-2.006405-0.529077 0-0.651762-2.144425-0.874128-5.623046-0.587864-3.092675 0.258149-5.623046 0.184027-5.623046-0.161024s-2.18532-1.265185-4.856267-2.0473c-2.670947-0.782115-5.428795-2.221103-6.12912-3.200024-1.293301-1.809598-5.472246-2.806411-13.295948-3.177021-2.389795-0.112461-4.345081-0.610867-4.345081-1.106718s-1.725253-0.802562-3.833896-0.684989c-2.108642 0.117573-4.61601-0.117573-5.569371-0.52141-0.955918-0.406393-9.352148-0.582752-18.660845-0.393613-10.683788 0.217254-17.048053-0.030671-17.262752-0.677321-0.610867-1.832602-45.446992-3.015997-52.565257-1.385315m29.234728 155.132175c3.217916 2.039632 38.975377 38.280164 39.547905 40.079539 0.345051 1.088826 2.075415 2.729733 3.846675 3.644756 2.98277 1.541226 16.327281 14.579025 26.908831 26.282629 6.941906 7.68057 6.773215 8.109966-9.692086 24.91265-7.798143 7.959166-14.458896 15.200116-14.801391 16.08958-0.339939 0.889464-1.436433 1.90928-2.433246 2.261998-1.937395 0.690101-22.752889 21.794416-22.763113 23.080048-0.005112 0.421728-0.631315 0.766779-1.392981 0.766779-0.761667 0-6.285032 5.293331-12.271021 11.764946-5.988544 6.471615-15.14133 15.701078-20.340091 20.511339-5.201318 4.81026-10.044805 9.86589-10.765577 11.238424-0.720772 1.369979-1.778927 2.492032-2.351456 2.492032-1.750812 0-21.221887 19.660214-21.817419 22.027005-0.304156 1.219179-2.287557 3.368716-4.406423 4.777033-2.118866 1.408317-6.382157 5.091413-9.474833 8.181532s-6.87034 6.415384-8.393674 7.389194c-1.52589 0.973809-3.05178 2.647944-3.391719 3.72399-0.342495 1.073491-1.165504 1.970622-1.830046 1.993626-0.664542 0.023003-4.889494 4.260735-9.387931 9.421158-4.498437 5.157867-9.525951 10.545767-11.174527 11.971976-6.103561 5.280551-23.074936 22.487073-23.074936 23.394428 0 0.516298-0.805118 1.206399-1.789151 1.533558-0.984033 0.324603-2.964879 1.55145-4.401312 2.724621-3.281814 2.678615-6.727208 1.630683-10.27995-3.125902-2.796187-3.749549-7.90038-8.879301-18.221226-18.318351-3.974471-3.631977-7.225614-7.054367-7.225614-7.601336 0-1.4441-4.23262-5.727839-5.661385-5.727839-1.364867 0-15.123438-14.901072-15.606509-16.899809-0.171247-0.705437-2.931652-3.136126-6.134232-5.403237-15.138774-10.711903-22.665988-21.86087-17.827612-26.400201 1.116941-1.047931 4.963616-4.570003 8.549586-7.826258 3.58597-3.258811 7.210279-6.65053 8.053736-7.539993 0.843457-0.889464 5.789182-5.876083 10.990499-11.079957 5.201318-5.20643 9.456941-10.198161 9.456941-11.092737 0-0.897131 1.265185-2.297781 2.811523-3.115678 1.546338-0.817898 6.711872-5.428795 11.478682-10.24928 4.76681-4.820484 9.252467-8.764284 9.968127-8.764284 0.71566 0 1.300968-0.465179 1.300969-1.035152 0-0.567416 3.069672-4.258179 6.819221-8.199423 3.752105-3.941244 7.453092-8.069071 8.227539-9.173233 0.771891-1.104162 3.424946-3.192357 5.89653-4.639013 2.469028-1.449212 4.633901-3.28437 4.807705-4.081821 0.176359-0.79745 4.600674-5.945093 9.832663-11.442898 11.892743-12.493386 10.15471-10.75791 22.009113-21.960551 5.528477-5.224321 15.386699-14.906184 21.904321-21.513264 6.517622-6.607079 12.449935-12.012871 13.180931-12.012871 0.730996 0 1.993625-1.265185 2.806411-2.811523 0.812786-1.546338 5.423684-6.676089 10.24928-11.399448 4.825596-4.723359 8.771952-9.201348 8.771952-9.955347 0-0.751443 1.548894-2.014073 3.442837-2.803856 1.893944-0.792338 4.999399-3.386607 6.901012-5.768734 7.00836-8.777064 14.883181-13.022464 19.146472-10.320845m128.453376 128.611844c2.031964 2.428134 4.115047 4.416647 4.631345 4.416647 0.513742 0 4.976396 4.255624 9.917009 9.454385 4.938057 5.201318 15.189892 15.726638 22.781004 23.391872 7.591112 7.665234 14.6327 14.798835 15.64996 15.849322 1.014704 1.050487 5.316334 5.33167 9.559178 9.513172 11.325326 11.161747 11.223089 11.448011-10.640336 30.006619-4.076708 3.460729-7.412197 6.844781-7.412198 7.519546 0 1.748256-12.191786 13.89148-15.7752 15.713858-1.648575 0.838345-3.718878 2.867754-4.600674 4.511216-2.085639 3.885014-15.425038 17.500453-18.011639 18.382249-1.096494 0.375722-3.836451 3.018553-6.085669 5.873527-4.669684 5.927202-12.830769 14.065283-15.693411 15.647404-1.063267 0.59042-4.178946 3.764885-6.924014 7.059479-7.61156 9.142562-15.997566 17.38288-19.133693 18.803977-1.55145 0.702881-3.373828 2.591713-4.048593 4.196837-0.677321 1.605124-6.405161 7.690794-12.731087 13.523426-6.325927 5.832632-11.506797 11.074845-11.511909 11.64993-0.007668 0.999369-8.679938 9.41349-20.181624 19.583536-2.952099 2.609605-5.367453 5.101636-5.367453 5.541256 0 0.437064-3.046669 3.708654-6.768103 7.271621-8.69783 8.324664-13.436524 13.155372-22.850015 23.297302-4.199393 4.523996-8.184088 8.227539-8.851185 8.227539-0.667098 0-4.966172 4.32719-9.548955 9.615409-4.585339 5.285663-9.574514 10.152154-11.085069 10.809028-1.513111 0.65943-5.050518 3.997475-7.86204 7.422421-6.527845 7.946387-14.573913 16.112583-18.182887 18.451259-1.548894 1.004481-4.209617 3.764885-5.90931 6.134232-1.702249 2.369347-6.410273 7.174496-10.458866 10.67612-10.0857 8.715721-9.625633 8.260766-17.078724 16.933036-3.65498 4.253068-8.084407 8.449905-9.842887 9.329145-1.75848 0.87924-3.974471 2.783408-4.925277 4.235176-0.950806 1.449212-6.957242 7.895268-13.349623 14.323432-14.435893 14.515127-14.346435 14.499791-24.628942 4.276071-4.097156-4.076708-8.513803-8.378339-9.812215-9.561734-1.298412-1.18084-4.201949-4.199393-6.453724-6.704205-2.249218-2.507367-7.424977-7.427533-11.501685-10.934268-4.074152-3.509292-7.409641-6.975133-7.409641-7.703574 0-1.252406-12.498498-13.454416-21.444253-20.933067-2.261998-1.893944-4.115047-4.020478-4.115047-4.725914s-1.592344-2.374459-3.537408-3.706099c-5.03007-3.445394-6.51251-6.538069-4.600674-9.584738 3.049225-4.863935 13.505534-17.042942 15.138774-17.633361 0.930359-0.334827 12.731088-11.690824 26.228954-25.232141 13.497867-13.543873 26.724805-26.405313 29.393196-28.58041 2.668391-2.177652 4.853711-4.575115 4.853711-5.33167 0-1.891388 5.980876-8.541918 9.712534-10.801361 3.897793-2.361679 14.824394-13.165596 14.824394-14.660814 0-1.566785 7.148936-8.39623 11.013503-10.522764 2.949543-1.62046 10.44353-9.699755 14.870401-16.023126 1.019816-1.461992 5.27544-5.229433 9.456941-8.375783 4.178946-3.14635 7.59878-6.152124 7.59878-6.681201 0-0.529078 5.635826-6.750211 12.524057-13.825025 18.617394-19.123469 23.345865-23.713919 31.335703-30.425792 3.992363-3.35338 7.258841-6.504842 7.258841-7.003248 0-0.498406 4.715691-5.669053 10.479313-11.48635 5.763622-5.819853 12.77965-12.940674 15.591173-15.828874 2.811523-2.888201 8.102298-7.652455 11.757279-10.589219 3.65498-2.936764 7.412197-6.949574 8.350223-8.920196 0.940582-1.973178 3.626865-5.168091 5.975765-7.100373 6.21091-5.116972 17.579687-16.470413 19.762451-19.736892 1.035152-1.548894 3.455617-3.565522 5.375121-4.483101 1.922059-0.915023 5.97832-4.784701 9.014765-8.595593 3.036445-3.810892 9.06844-10.034581 13.400741-13.830138 4.334857-3.793 11.790505-11.281875 16.570095-16.639104 13.295948-14.906184 16.797572-15.665295 25.308819-5.479914m-377.375404 116.458397c0.863904 0.329715 2.946987 2.745069 4.62879 5.367453 1.681802 2.622384 4.350193 5.5387 5.927201 6.481838 3.867122 2.310561 14.709377 12.715752 18.187999 17.451891 1.546338 2.108642 3.309929 3.833895 3.915684 3.833895 0.851125 0 15.110658 14.190524 23.867275 23.754814 0.651762 0.710549 4.457542 4.209617 8.460129 7.775139 13.674226 12.181563 14.172632 16.130475 3.389163 26.87816-4.357861 4.342525-8.644155 8.736169-9.523395 9.761097-0.881796 1.024928-6.259473 6.203242-11.951529 11.509353-5.6895 5.303555-10.614777 10.709347-10.941937 12.012871-0.327159 1.300968-1.346975 2.366791-2.26711 2.366791-2.001293 0-16.066576 14.231419-18.264676 18.479375-0.848569 1.646019-2.164873 2.990438-2.921428 2.990438-0.756555 0-3.836451 2.530371-6.842225 5.623046-8.544474 8.789843-12.833325 6.655642-33.646263-16.754122-3.65498-4.109936-7.662678-7.872265-8.907416-8.355335-1.244738-0.485627-3.36616-2.62494-4.715691-4.75403-1.349531-2.131646-5.556592-6.635194-9.352148-10.009022-3.795556-3.373828-9.265246-8.603261-12.153447-11.62437a807.492424 807.492424 0 0 0-12.66719-12.810321c-7.09015-7.003248-8.705498-9.917009-6.318259-11.39178 0.600644-0.373166 1.405762-1.513111 1.789151-2.535483 0.546969-1.45688 13.31384-15.655072 20.892172-23.228292 7.65501-7.649899 21.336904-20.710701 21.694735-20.710701 0.253037 0 5.740619-5.175758 12.191786-11.501686 6.451167-6.325927 12.79243-12.483162 14.093398-13.681893a34.980459 34.980459 0 0 0 4.204505-4.856267c1.796819-2.619828 4.0946-3.279258 7.230726-2.072859m496.670883 3.363603c1.870941 2.180208 5.70228 5.812185 8.513803 8.069072s14.543242 13.681894 26.070487 25.388053c11.527245 11.70616 24.764406 24.98166 29.416198 29.5031 12.20201 11.854404 11.03395 18.297903-5.441575 30.004063-0.544413 0.388501-2.256886 2.660723-3.805779 5.050518-1.548894 2.389795-3.417278 4.345081-4.150831 4.345081-1.295857 0-16.50364 15.281906-20.618688 20.718369-1.124609 1.484995-2.576377 2.722066-3.228139 2.750181-0.651762 0.025559-4.332301 3.542519-8.178976 7.816034-3.846675 4.276071-8.375783 9.083775-10.062697 10.688899-1.686914 1.602568-7.320184 7.192387-12.518945 12.419264a2271.010302 2271.010302 0 0 1-12.577732 12.57262c-13.983493 13.730456-21.262782 21.203996-23.287079 23.913282-1.308636 1.748256-2.929096 3.179577-3.598749 3.179577s-4.549555 3.565522-8.618596 7.923383c-4.069041 4.357861-8.498467 9.004542-9.845443 10.325957a6465.994391 6465.994391 0 0 0-23.37398 23.156727c-0.932914 0.958474-46.206103 46.275114-47.629757 47.678319a4926.81076 4926.81076 0 0 1-10.627557 10.15471c-5.48247 5.229433-9.968127 10.049917-9.968127 10.711903 0 0.65943-1.265185 2.070303-2.811523 3.13357-3.514404 2.415354-20.393766 19.407177-23.591234 23.752258-1.308636 1.776371-2.923984 3.22814-3.591082 3.228139-1.449212 0-13.848029 12.608403-16.3784 16.659552-0.981477 1.571897-2.796187 3.246031-4.033257 3.72399-2.144425 0.828121-19.115801 17.901734-19.115801 19.230818 0 1.173172-4.429427 5.370009-5.669053 5.370009-0.67221 0-5.835188 4.830708-11.47357 10.734906-12.833325 13.436524-12.230125 13.410965-24.069193 1.022372-5.104192-5.341894-9.835219-9.712534-10.515097-9.712534s-2.545706-1.610236-4.148274-3.580858c-1.600012-1.968066-7.445424-8.063959-12.989237-13.546429-5.543812-5.479914-10.75791-10.73235-11.588586-11.667821-3.465841-3.905461-13.479975-13.991161-18.717076-18.849984-11.453123-10.625001-12.35281-13.548985-5.996212-19.471075 6.566184-6.118897 11.000723-10.566215 19.049347-19.113245 4.084376-4.337413 8.455017-8.360447 9.712534-8.935531 1.254962-0.575084 3.266479-2.438357 4.470321-4.140607 2.594269-3.672871 18.788642-20.600796 20.409102-21.334348 0.621091-0.281152 3.381495-3.092675 6.134232-6.249249 2.755293-3.156574 7.943831-8.217315 11.534912-11.246092 3.591082-3.028777 7.14638-6.19813 7.902936-7.041587 11.946417-13.311284 16.00779-17.495341 20.202071-20.828274 2.742513-2.177652 5.229433-4.708023 5.528477-5.623047 0.296488-0.915023 4.955948-5.794293 10.348961-10.844811 5.395568-5.050518 11.655041-11.284431 13.909371-13.853141 2.25433-2.571266 7.151492-7.412197 10.880594-10.755353 8.230095-7.384082 7.849261-7.00836 18.402696-18.200778 4.692688-4.978952 9.551511-9.446717 10.796249-9.929788 1.244738-0.483071 3.368716-2.619828 4.723359-4.748918 1.352087-2.131646 6.773215-8.007729 12.048654-13.058247 5.27544-5.053074 9.822439-9.653748 10.103591-10.22372 0.886908-1.807043 19.831461-19.565645 22.236592-20.846166 1.265185-0.67221 2.300337-1.712473 2.300337-2.31056 0-1.727809 16.212264-18.584167 19.910695-20.697922 1.845381-1.055599 3.987251-3.138682 4.759142-4.628789 0.769335-1.487551 5.533589-6.607079 10.586662-11.371333 5.050518-4.764254 11.491461-11.271652 14.313208-14.461452 2.819191-3.189801 8.692718-8.876745 13.050579-12.64163 4.357861-3.762329 7.923383-7.164272 7.923383-7.560441 0-1.193619 14.640367-15.310021 17.996304-17.352209 1.720141-1.045375 3.908017-3.547631 4.863935-5.561704 3.657536-7.711241 9.017321-8.787288 14.121513-2.837083" fill="#F2C116" p-id="5893"></path></svg>