<?xml version="1.0" standalone="no"?><!DOCTYPE svg PUBLIC "-//W3C//DTD SVG 1.1//EN" "http://www.w3.org/Graphics/SVG/1.1/DTD/svg11.dtd"><svg t="1630545449178" class="icon" viewBox="0 0 1024 1024" version="1.1" xmlns="http://www.w3.org/2000/svg" p-id="3944" xmlns:xlink="http://www.w3.org/1999/xlink" width="200" height="200"><defs><style type="text/css"></style></defs><path d="M512 0c282.795788 0 512 229.250293 512 512 0 282.795788-229.204212 512-512 512C229.250293 1024 0 794.772748 0 512 0 229.250293 229.250293 0 512 0z" fill="#F5AC37" p-id="3945"></path><path d="M530.869949 548.150122h194.551705c4.147241 0 6.105661 0 6.405184-5.437495 1.589776-19.791558 1.589776-39.698317 0-59.512915 0-3.847718-1.912339-5.437494-6.082621-5.437494H338.553146c-4.792368 0-6.082621 1.589776-6.082621 6.08262v56.95545c0 7.349833 0 7.349833 7.672396 7.349834h190.727028z m179.229952-136.95113c0.552966-1.451535 0.552966-3.04131 0-4.469805-3.248672-7.073351-7.096391-13.824138-11.566196-20.160201-6.727747-10.828908-14.653587-20.805328-23.685357-29.767978a78.511889 78.511889 0 0 0-14.722707-14.400144 230.017532 230.017532 0 0 0-96.00864-48.637926c-17.856179-4.009-36.104041-5.921339-54.397984-5.760058h-171.834038c-4.792368 0-5.437494 1.912339-5.437495 6.082621v113.588336c0 4.792368 0 6.082621 6.082621 6.082621H707.795878s3.202592-0.645126 3.847718-2.557466h-1.566735z m0 203.514355c-5.437494-0.599046-10.921069-0.599046-16.358564 0H338.875709c-4.792368 0-6.405184 0-6.405184 6.405184v111.053911c0 5.114931 0 6.405184 6.405184 6.405184h163.839078c7.833678 0.599046 15.667357 0.04608 23.339754-1.589776 23.777518-1.704977 47.163352-6.865989 69.466294-15.367834 8.110161-2.810908 15.943839-6.474305 23.339754-10.874989h2.234902a207.891999 207.891999 0 0 0 89.280893-89.879938s2.234902-4.838448-0.276483-6.105661z m-441.934659 181.441815v-176.94897c0-4.170282 0-4.792368-5.114931-4.792368H193.607056c-3.847718 0-5.437494 0-5.437494-5.114931v-60.803168h74.235622c4.147241 0 5.760058 0 5.760058-5.437494v-60.158042c0-3.847718 0-4.792368-5.114931-4.792368H193.607056c-3.847718 0-5.437494 0-5.437494-5.114931v-56.310323c0-3.525155 0-4.469805 5.114931-4.469805h68.798128c4.792368 0 6.082621 0 6.082621-6.082621v-172.479164c0-5.114931 0-6.405184 6.405184-6.405185h239.98704c17.418414 0.691207 34.721627 2.603546 51.840518 5.760058 35.274593 6.520385 69.166772 19.123391 100.155882 37.117811 20.551886 12.096121 39.467915 26.703627 56.310323 43.522995 12.672127 13.155972 24.100081 27.394834 34.237782 42.555306 10.068581 15.367834 18.432184 31.795518 24.99865 48.96049a8.333651 8.333651 0 0 0 9.561696 6.727747h57.278012c7.349833 0 7.349833 0 7.672397 7.05031v52.485645c0 5.114931-1.912339 6.405184-7.05031 6.405184h-44.168122c-4.469805 0-5.760058 0-5.437494 5.760058 1.751058 19.492035 1.751058 39.053191 0 58.545225 0 5.437494 0 6.082621 6.105661 6.082621h50.527225c2.234902 2.880029 0 5.760058 0 8.663127 0.322563 3.709477 0.322563 7.465035 0 11.174512v38.730627c0 5.437494-1.589776 7.050311-6.405184 7.05031h-60.480605c-4.216362-0.806408-8.317523 1.889299-9.285213 6.082621a255.884799 255.884799 0 0 1-67.208352 97.920979c-10.874989 9.792098-22.302943 19.00819-34.237782 27.510036-12.810368 7.372874-25.275133 15.04527-38.408064 21.127891-24.169202 10.874989-49.513455 18.892989-75.525876 23.98488a393.741409 393.741409 0 0 1-74.880748 6.08262h-222.084781v-0.322563z" fill="#FEFEFD" p-id="3946"></path></svg>