<svg width="24" height="28" viewBox="0 0 24 24" fill="none" xmlns="http://www.w3.org/2000/svg">
<circle cx="12" cy="12" r="12" fill="url(#paint0_linear)"/>
<g filter="url(#filter0_d)">
<path fill-rule="evenodd" clip-rule="evenodd" d="M11.4271 20V18.3023C11.4271 17.986 11.6836 17.7295 12 17.7295C12.3164 17.7295 12.5728 17.986 12.5728 18.3023V20.0001C16.5458 19.7197 19.7198 16.5457 20.0001 12.5727H18.3023C17.986 12.5727 17.7295 12.3163 17.7295 11.9999C17.7295 11.6835 17.986 11.427 18.3023 11.427H20C19.7196 7.45455 16.5461 4.28088 12.5738 4.00012V5.69852C12.5738 6.0149 12.3173 6.27138 12.0009 6.27138C11.6845 6.27138 11.428 6.0149 11.428 5.69852V4C7.45451 4.28002 4.27997 7.45459 4 11.4281H5.69852C6.01491 11.4281 6.27139 11.6846 6.27139 12.001C6.27139 12.3174 6.01491 12.5739 5.69852 12.5739H4.00013C4.28094 16.5462 7.45464 19.7196 11.4271 20Z" fill="url(#paint1_linear)"/>
</g>
<g opacity="0.6" filter="url(#filter1_d)">
<path d="M10.6969 10.9786C10.7477 10.8497 10.8497 10.7477 10.9786 10.6969L13.814 9.57863C14.2208 9.41819 14.623 9.82042 14.4625 10.2272L13.3443 13.0626C13.2935 13.1915 13.1915 13.2935 13.0626 13.3443L10.2272 14.4625C9.82042 14.623 9.41819 14.2208 9.57863 13.814L10.6969 10.9786Z" fill="url(#paint2_linear)"/>
</g>
<defs>
<filter id="filter0_d" x="0" y="4" width="24.0001" height="24.0001" filterUnits="userSpaceOnUse" color-interpolation-filters="sRGB">
<feFlood flood-opacity="0" result="BackgroundImageFix"/>
<feColorMatrix in="SourceAlpha" type="matrix" values="0 0 0 0 0 0 0 0 0 0 0 0 0 0 0 0 0 0 127 0"/>
<feOffset dy="4"/>
<feGaussianBlur stdDeviation="2"/>
<feColorMatrix type="matrix" values="0 0 0 0 0.143767 0 0 0 0 0.704167 0 0 0 0 0.617685 0 0 0 0.37 0"/>
<feBlend mode="normal" in2="BackgroundImageFix" result="effect1_dropShadow"/>
<feBlend mode="normal" in="SourceGraphic" in2="effect1_dropShadow" result="shape"/>
</filter>
<filter id="filter1_d" x="7.54248" y="8.54297" width="8.95617" height="8.95617" filterUnits="userSpaceOnUse" color-interpolation-filters="sRGB">
<feFlood flood-opacity="0" result="BackgroundImageFix"/>
<feColorMatrix in="SourceAlpha" type="matrix" values="0 0 0 0 0 0 0 0 0 0 0 0 0 0 0 0 0 0 127 0"/>
<feOffset dy="1"/>
<feGaussianBlur stdDeviation="1"/>
<feColorMatrix type="matrix" values="0 0 0 0 0.143767 0 0 0 0 0.704167 0 0 0 0 0.617685 0 0 0 0.37 0"/>
<feBlend mode="normal" in2="BackgroundImageFix" result="effect1_dropShadow"/>
<feBlend mode="normal" in="SourceGraphic" in2="effect1_dropShadow" result="shape"/>
</filter>
<linearGradient id="paint0_linear" x1="12" y1="0" x2="12" y2="24" gradientUnits="userSpaceOnUse">
<stop stop-color="#4CE8D0"/>
<stop offset="1" stop-color="#1DC6AC"/>
</linearGradient>
<linearGradient id="paint1_linear" x1="12" y1="3.97986" x2="12" y2="20.0201" gradientUnits="userSpaceOnUse">
<stop stop-color="white"/>
<stop offset="1" stop-color="#C6FFF6"/>
</linearGradient>
<linearGradient id="paint2_linear" x1="12.0206" y1="9.15625" x2="12.0206" y2="14.8849" gradientUnits="userSpaceOnUse">
<stop stop-color="#36D7BE"/>
<stop offset="1" stop-color="#64F2DD"/>
</linearGradient>
</defs>
</svg>
