<svg width="28" height="28" viewBox="0 0 28 28" fill="none" xmlns="http://www.w3.org/2000/svg">
<path fill-rule="evenodd" clip-rule="evenodd" d="M28 14C28 21.732 21.732 28 14 28C6.26801 28 0 21.732 0 14C0 6.26801 6.26801 0 14 0C21.732 0 28 6.26801 28 14ZM14.6271 13.2081C13.5036 14.0799 12.2414 15.0594 12.4774 16.8114H15.0118C14.8636 15.448 15.8729 14.6864 16.9131 13.9014C17.9415 13.1254 19 12.3267 19 10.9012C19 8.30689 16.9175 7 14.0688 7C11.9666 7 10.2377 7.93628 9 9.37971L10.611 10.8622C11.5737 9.84785 12.5363 9.3212 13.7544 9.3212C15.2868 9.3212 16.2299 9.9844 16.2299 11.1547C16.2299 11.9643 15.4673 12.5561 14.6271 13.2081ZM12.0255 20.2835C12.0255 21.2978 12.7525 22 13.7544 22C14.7564 22 15.4833 21.2978 15.4833 20.2835C15.4833 19.2497 14.7564 18.5475 13.7544 18.5475C12.7721 18.5475 12.0255 19.2497 12.0255 20.2835Z" fill="#BBBDD6"/>
</svg>
