<svg width="24" height="24" viewBox="0 0 24 24" fill="none" xmlns="http://www.w3.org/2000/svg">
<circle cx="12" cy="12" r="12" fill="url(#paint0_linear)"/>
<mask id="mask0" mask-type="alpha" maskUnits="userSpaceOnUse" x="0" y="0" width="24" height="24">
<circle cx="12" cy="12" r="12" fill="url(#paint1_linear)"/>
</mask>
<g mask="url(#mask0)">
<g opacity="0.6" filter="url(#filter0_d)">
<rect x="4.36377" y="14.1836" width="5.45455" height="9.81818" rx="1" fill="url(#paint2_linear)"/>
</g>
<g opacity="0.6" filter="url(#filter1_d)">
<rect x="13.6362" y="16.3633" width="6" height="7.63636" rx="1" fill="url(#paint3_linear)"/>
</g>
<g filter="url(#filter2_d)">
<rect x="9.27295" y="10.9102" width="5.45455" height="14.1818" rx="1" fill="url(#paint4_linear)"/>
</g>
</g>
<g clip-path="url(#clip0)">
<g filter="url(#filter3_d)">
<path d="M14.1562 8.72798H9.84333C9.64037 8.72798 9.48815 8.58317 9.43741 8.43836L8.9833 6.61775C8.88106 6.20787 9.30172 5.86376 9.68321 6.04522L9.92239 6.15899C10.1625 6.27321 10.45 6.17951 10.5768 5.94573L11.5753 4.10333C11.7666 3.75053 12.2746 3.75539 12.459 4.11178L13.4266 5.9816C13.5505 6.22105 13.842 6.31913 14.0854 6.20332L14.2898 6.10614C14.6757 5.92257 15.0991 6.27643 14.987 6.68883L14.5289 8.37395C14.5173 8.4167 14.5144 8.46161 14.5029 8.5044C14.4629 8.65346 14.29 8.72798 14.1562 8.72798Z" fill="url(#paint5_linear)"/>
</g>
</g>
<defs>
<filter id="filter0_d" x="0.36377" y="14.1836" width="13.4545" height="17.8182" filterUnits="userSpaceOnUse" color-interpolation-filters="sRGB">
<feFlood flood-opacity="0" result="BackgroundImageFix"/>
<feColorMatrix in="SourceAlpha" type="matrix" values="0 0 0 0 0 0 0 0 0 0 0 0 0 0 0 0 0 0 127 0"/>
<feOffset dy="4"/>
<feGaussianBlur stdDeviation="2"/>
<feColorMatrix type="matrix" values="0 0 0 0 0.143767 0 0 0 0 0.704167 0 0 0 0 0.617685 0 0 0 0.37 0"/>
<feBlend mode="normal" in2="BackgroundImageFix" result="effect1_dropShadow"/>
<feBlend mode="normal" in="SourceGraphic" in2="effect1_dropShadow" result="shape"/>
</filter>
<filter id="filter1_d" x="9.63623" y="16.3633" width="14" height="15.6364" filterUnits="userSpaceOnUse" color-interpolation-filters="sRGB">
<feFlood flood-opacity="0" result="BackgroundImageFix"/>
<feColorMatrix in="SourceAlpha" type="matrix" values="0 0 0 0 0 0 0 0 0 0 0 0 0 0 0 0 0 0 127 0"/>
<feOffset dy="4"/>
<feGaussianBlur stdDeviation="2"/>
<feColorMatrix type="matrix" values="0 0 0 0 0.143767 0 0 0 0 0.704167 0 0 0 0 0.617685 0 0 0 0.37 0"/>
<feBlend mode="normal" in2="BackgroundImageFix" result="effect1_dropShadow"/>
<feBlend mode="normal" in="SourceGraphic" in2="effect1_dropShadow" result="shape"/>
</filter>
<filter id="filter2_d" x="5.27295" y="10.9102" width="13.4545" height="22.1818" filterUnits="userSpaceOnUse" color-interpolation-filters="sRGB">
<feFlood flood-opacity="0" result="BackgroundImageFix"/>
<feColorMatrix in="SourceAlpha" type="matrix" values="0 0 0 0 0 0 0 0 0 0 0 0 0 0 0 0 0 0 127 0"/>
<feOffset dy="4"/>
<feGaussianBlur stdDeviation="2"/>
<feColorMatrix type="matrix" values="0 0 0 0 0.143767 0 0 0 0 0.704167 0 0 0 0 0.617685 0 0 0 0.37 0"/>
<feBlend mode="normal" in2="BackgroundImageFix" result="effect1_dropShadow"/>
<feBlend mode="normal" in="SourceGraphic" in2="effect1_dropShadow" result="shape"/>
</filter>
<filter id="filter3_d" x="4.96777" y="3.83984" width="14.0376" height="12.8864" filterUnits="userSpaceOnUse" color-interpolation-filters="sRGB">
<feFlood flood-opacity="0" result="BackgroundImageFix"/>
<feColorMatrix in="SourceAlpha" type="matrix" values="0 0 0 0 0 0 0 0 0 0 0 0 0 0 0 0 0 0 127 0"/>
<feOffset dy="4"/>
<feGaussianBlur stdDeviation="2"/>
<feColorMatrix type="matrix" values="0 0 0 0 0.143767 0 0 0 0 0.704167 0 0 0 0 0.617685 0 0 0 0.37 0"/>
<feBlend mode="normal" in2="BackgroundImageFix" result="effect1_dropShadow"/>
<feBlend mode="normal" in="SourceGraphic" in2="effect1_dropShadow" result="shape"/>
</filter>
<linearGradient id="paint0_linear" x1="12" y1="0" x2="12" y2="24" gradientUnits="userSpaceOnUse">
<stop stop-color="#4CE8D0"/>
<stop offset="1" stop-color="#1DC6AC"/>
</linearGradient>
<linearGradient id="paint1_linear" x1="12" y1="0" x2="12" y2="24" gradientUnits="userSpaceOnUse">
<stop stop-color="#4CE8D0"/>
<stop offset="1" stop-color="#1DC6AC"/>
</linearGradient>
<linearGradient id="paint2_linear" x1="7.09104" y1="14.1836" x2="7.09104" y2="24.0018" gradientUnits="userSpaceOnUse">
<stop stop-color="white"/>
<stop offset="1" stop-color="#E9FFFC"/>
</linearGradient>
<linearGradient id="paint3_linear" x1="16.6362" y1="16.3633" x2="16.6362" y2="23.9996" gradientUnits="userSpaceOnUse">
<stop stop-color="white"/>
<stop offset="1" stop-color="#E9FFFC"/>
</linearGradient>
<linearGradient id="paint4_linear" x1="12.0002" y1="10.9102" x2="12.0002" y2="25.092" gradientUnits="userSpaceOnUse">
<stop stop-color="white"/>
<stop offset="1" stop-color="#C6FFF6"/>
</linearGradient>
<linearGradient id="paint5_linear" x1="11.9998" y1="3.27344" x2="11.9998" y2="8.72798" gradientUnits="userSpaceOnUse">
<stop stop-color="white"/>
<stop offset="1" stop-color="#C6FFF6"/>
</linearGradient>
<clipPath id="clip0">
<rect x="8.72705" y="3.27344" width="6.54545" height="5.45455" rx="1" fill="white"/>
</clipPath>
</defs>
</svg>
