<svg width="164" height="10" viewBox="0 0 164 10" fill="none" xmlns="http://www.w3.org/2000/svg">
<path d="M156.413 0H147.075L154.662 10H164L156.413 0Z" fill="#1DC6AC"/>
<path d="M121.395 0H112.057L119.644 10H128.982L121.395 0Z" fill="#1DC6AC"/>
<path d="M144.741 0H135.403L142.99 10H152.328L144.741 0Z" fill="#1DC6AC"/>
<path d="M109.723 0H100.385L107.972 10H117.31L109.723 0Z" fill="#1DC6AC"/>
<path d="M86.377 0H77.0389L84.6261 10H93.9642L86.377 0Z" fill="#1DC6AC"/>
<path d="M133.067 0H123.729L131.316 10H140.654L133.067 0Z" fill="#1DC6AC"/>
<path d="M98.049 0H88.7108L96.2981 10H105.636L98.049 0Z" fill="#1DC6AC"/>
<path d="M74.705 0H0.0001297L7.58734 10H82.2922L74.705 0Z" fill="#1DC6AC"/>
</svg>
