<svg width="165" height="10" viewBox="0 0 165 10" fill="none" xmlns="http://www.w3.org/2000/svg">
<path d="M7.63799 0H16.9761L9.38889 10H0.0507812L7.63799 0Z" fill="#1DC6AC"/>
<path d="M42.6559 0H51.994L44.4068 10H35.0687L42.6559 0Z" fill="#1DC6AC"/>
<path d="M19.31 0H28.6481L21.0609 10H11.7228L19.31 0Z" fill="#1DC6AC"/>
<path d="M54.3279 0H63.666L56.0788 10H46.7407L54.3279 0Z" fill="#1DC6AC"/>
<path d="M77.6738 0H87.0119L79.4247 10H70.0866L77.6738 0Z" fill="#1DC6AC"/>
<path d="M30.9839 0H40.322L32.7348 10H23.3967L30.9839 0Z" fill="#1DC6AC"/>
<path d="M66.0018 0H75.3399L67.7527 10H58.4146L66.0018 0Z" fill="#1DC6AC"/>
<path d="M89.3458 0H164.051L156.463 10H81.7586L89.3458 0Z" fill="#1DC6AC"/>
</svg>
