<svg width="164" height="10" viewBox="0 0 164 10" fill="none" xmlns="http://www.w3.org/2000/svg">
<path d="M7.58721 0H16.9253L9.33811 10H0L7.58721 0Z" fill="#1DC6AC"/>
<path d="M42.6051 0H51.9432L44.356 10H35.0179L42.6051 0Z" fill="#1DC6AC"/>
<path d="M19.2592 0H28.5973L21.0101 10H11.672L19.2592 0Z" fill="#1DC6AC"/>
<path d="M54.2771 0H63.6152L56.028 10H46.6899L54.2771 0Z" fill="#1DC6AC"/>
<path d="M77.623 0H86.9611L79.3739 10H70.0358L77.623 0Z" fill="#1DC6AC"/>
<path d="M30.9331 0H40.2712L32.684 10H23.3459L30.9331 0Z" fill="#1DC6AC"/>
<path d="M65.951 0H75.2892L67.7019 10H58.3638L65.951 0Z" fill="#1DC6AC"/>
<path d="M89.295 0H164L156.413 10H81.7078L89.295 0Z" fill="#1DC6AC"/>
</svg>
