<svg width="16" height="16" viewBox="0 0 16 16" fill="none" xmlns="http://www.w3.org/2000/svg">
<path fill-rule="evenodd" clip-rule="evenodd" d="M12.9073 5.99988L14.4739 7.52655C14.5387 7.58629 14.5909 7.65827 14.6276 7.73832C14.6644 7.81837 14.6849 7.9049 14.688 7.99293C14.6911 8.08095 14.6767 8.16872 14.6457 8.25115C14.6147 8.33359 14.5676 8.40906 14.5073 8.47321L12.9406 10.0332V12.2399C12.9406 12.4167 12.8704 12.5863 12.7453 12.7113C12.6203 12.8363 12.4508 12.9065 12.2739 12.9065H10.0673L8.50728 14.4732C8.4453 14.5357 8.37157 14.5853 8.29033 14.6191C8.20909 14.653 8.12195 14.6704 8.03394 14.6704C7.94594 14.6704 7.8588 14.653 7.77756 14.6191C7.69632 14.5853 7.62259 14.5357 7.56061 14.4732L6.00061 12.9065H3.76061C3.5838 12.9065 3.41423 12.8363 3.28921 12.7113C3.16418 12.5863 3.09394 12.4167 3.09394 12.2399V10.0332L1.52728 8.47321C1.46479 8.41124 1.4152 8.3375 1.38135 8.25626C1.3475 8.17502 1.33008 8.08789 1.33008 7.99988C1.33008 7.91187 1.3475 7.82473 1.38135 7.74349C1.4152 7.66225 1.46479 7.58852 1.52728 7.52655L3.09394 5.99988V3.75988C3.09394 3.58307 3.16418 3.4135 3.28921 3.28847C3.41423 3.16345 3.5838 3.09321 3.76061 3.09321H6.00061L7.52728 1.52654C7.58925 1.46406 7.66299 1.41446 7.74423 1.38062C7.82547 1.34677 7.9126 1.32935 8.00061 1.32935C8.08862 1.32935 8.17576 1.34677 8.257 1.38062C8.33823 1.41446 8.41197 1.46406 8.47394 1.52654L10.0339 3.09321H12.2406C12.4174 3.09321 12.587 3.16345 12.712 3.28847C12.837 3.4135 12.9073 3.58307 12.9073 3.75988V5.99988ZM10.8053 7.4712C11.0656 7.21085 11.0656 6.78874 10.8053 6.52839C10.5449 6.26804 10.1228 6.26804 9.86245 6.52839L7.66719 8.72365L6.47193 7.52839C6.21158 7.26804 5.78947 7.26804 5.52912 7.52839C5.26877 7.78874 5.26877 8.21085 5.52912 8.4712L7.19579 10.1379C7.45614 10.3982 7.87825 10.3982 8.1386 10.1379L10.8053 7.4712Z" fill="#1DC6AC"/>
<path fill-rule="evenodd" clip-rule="evenodd" d="M10.8034 7.47071C11.0638 7.21036 11.0638 6.78825 10.8034 6.5279C10.5431 6.26755 10.121 6.26755 9.86063 6.5279L7.66536 8.72317L6.4701 7.5279C6.20975 7.26755 5.78764 7.26755 5.52729 7.5279C5.26694 7.78825 5.26694 8.21036 5.52729 8.47071L7.19396 10.1374C7.45431 10.3977 7.87642 10.3977 8.13677 10.1374L10.8034 7.47071Z" fill="white"/>
</svg>
