<svg width="120" height="24" viewBox="0 0 120 24" fill="none" xmlns="http://www.w3.org/2000/svg">
<path d="M23.4799 18.9231L23.48 18.9266C23.498 21.4564 21.457 23.5 18.9231 23.5H5.05686C2.54499 23.5 0.5 21.4576 0.5 18.9231V5.05686C0.5 2.5437 2.5437 0.5 5.05686 0.5H18.9231C21.4362 0.5 23.4799 2.5437 23.4799 5.05686L23.4799 18.9231Z" stroke="white"/>
<path opacity="0.8" d="M14.0059 17.6778C14.0259 17.738 14.0661 17.7982 14.1062 17.8785C14.4674 18.5407 15.1697 19.0022 15.9925 19.0022C17.1764 19.0022 18.1396 18.039 18.1396 16.8551C18.1396 16.4738 18.0393 16.0925 17.8587 15.7915C17.2968 14.5875 17.0761 13.2631 17.1965 11.9387C17.337 10.5541 17.8386 9.22967 18.6815 8.10593L19.0828 7.58419L15.6714 5.01562L15.2701 5.53736C13.9457 7.28318 13.143 9.37014 12.9423 11.5374C12.7417 13.6444 13.1029 15.7514 14.0059 17.6778Z" fill="white"/>
<g opacity="0.6">
<path opacity="0.6" d="M8.00626 4.99609C8.62833 4.99609 9.23034 5.25696 9.65174 5.7787L17.6183 15.5312C18.3608 16.4342 18.2203 17.7787 17.3173 18.5412C16.4143 19.2837 15.0698 19.1433 14.3073 18.2402L6.36077 8.46767C5.6183 7.56466 5.75876 6.22017 6.66177 5.45763C7.04305 5.15663 7.52465 4.99609 8.00626 4.99609Z" fill="white"/>
</g>
<path d="M9.99294 6.32051C9.97287 6.26031 9.93274 6.20011 9.8926 6.11984C9.5314 5.45763 8.82906 4.99609 8.00632 4.99609C6.82237 4.99609 5.85916 5.9593 5.85916 7.14325C5.85916 7.52452 5.95949 7.90579 6.1401 8.2068C6.70197 9.41081 6.9227 10.7352 6.8023 12.0596C6.66184 13.4443 6.16016 14.7687 5.31735 15.8924L4.91602 16.4142L8.32739 18.9827L8.72872 18.461C10.0331 16.7152 10.8558 14.6483 11.0565 12.461C11.2572 10.354 10.8759 8.24693 9.99294 6.32051Z" fill="white"/>
<path d="M34.3153 6.02007C34.4156 6.04013 34.4959 6.0602 34.5561 6.08027C34.6364 6.1204 34.6966 6.16054 34.7768 6.22074C34.837 6.28094 34.9173 6.3612 34.9976 6.46154L41.3588 14.5084C41.3387 14.2475 41.3186 14.0067 41.2986 13.7659C41.2785 13.5251 41.2785 13.3043 41.2785 13.0836V6H44.0277V19.4047H42.4022C42.1614 19.4047 41.9608 19.3645 41.8002 19.2843C41.6397 19.204 41.4792 19.0836 41.3186 18.8829L34.9976 10.8963C35.0176 11.1371 35.0377 11.3579 35.0377 11.5786C35.0578 11.7993 35.0578 12.0201 35.0578 12.2007V19.3846H32.3086V6H33.9541C34.1146 6 34.2149 6.02007 34.3153 6.02007Z" fill="white"/>
<path d="M54.683 6V8.38796H49.1847V11.7793H53.7599V14.1873H49.1847V19.4047H46.0542V6H54.683Z" fill="white"/>
<path d="M65.8403 6V8.46823H62.0677V19.4047H58.9574V8.46823H55.1848V6H65.8403Z" fill="white"/>
<path d="M73.787 16.9365H78.7636V19.4247H70.6766V6H73.787V16.9365Z" fill="white"/>
<path d="M92.6501 19.4247H90.2421C89.9812 19.4247 89.7404 19.3645 89.5799 19.2441C89.3993 19.1237 89.2789 18.9632 89.2187 18.7625L88.4361 16.4147H83.3391L82.5565 18.7625C82.4963 18.9431 82.3759 19.0836 82.1953 19.2241C82.0147 19.3645 81.7939 19.4247 81.533 19.4247H79.1049L84.2822 6H87.4728L92.6501 19.4247ZM84.0414 14.2876H87.6936L86.4695 10.6154C86.3892 10.3746 86.2889 10.1137 86.1886 9.79264C86.0882 9.47157 85.9678 9.13043 85.8675 8.76923C85.7672 9.1505 85.6668 9.49164 85.5665 9.81271C85.4662 10.1338 85.3658 10.4147 85.2655 10.6355L84.0414 14.2876Z" fill="white"/>
<path d="M95.2986 6.02007C95.3989 6.04013 95.4792 6.0602 95.5394 6.08027C95.6197 6.1204 95.6799 6.16054 95.7601 6.22074C95.8203 6.28094 95.9006 6.3612 95.9809 6.46154L102.342 14.5485C102.322 14.2876 102.302 14.0468 102.282 13.806C102.262 13.5652 102.262 13.3445 102.262 13.1237V6H105.011V19.4047H103.386C103.145 19.4047 102.944 19.3645 102.784 19.2843C102.623 19.204 102.462 19.0836 102.302 18.8829L95.9809 10.8963C96.0009 11.1371 96.021 11.3579 96.021 11.5786C96.0411 11.7993 96.0411 12.0201 96.0411 12.2007V19.3846H93.312V6H94.9575C95.0779 6 95.1983 6.02007 95.2986 6.02007Z" fill="white"/>
<path d="M119.198 12.7023C119.198 13.6656 119.037 14.5686 118.696 15.3913C118.355 16.214 117.894 16.9164 117.292 17.5184C116.69 18.1204 115.947 18.5819 115.104 18.9231C114.241 19.2642 113.298 19.4247 112.255 19.4247H107.037V6H112.255C113.298 6 114.241 6.16054 115.104 6.50167C115.967 6.84281 116.69 7.30435 117.292 7.90635C117.894 8.50836 118.375 9.2107 118.696 10.0334C119.037 10.8562 119.198 11.7391 119.198 12.7023ZM116.027 12.7023C116.027 12.0401 115.947 11.4381 115.767 10.9164C115.586 10.3746 115.345 9.93311 115.024 9.55184C114.703 9.19063 114.302 8.88963 113.84 8.68896C113.379 8.48829 112.837 8.38796 112.255 8.38796H110.168V17.0167H112.255C112.857 17.0167 113.379 16.9164 113.84 16.7157C114.302 16.515 114.703 16.2341 115.024 15.8528C115.345 15.4716 115.586 15.0301 115.767 14.4883C115.927 13.9866 116.027 13.3846 116.027 12.7023Z" fill="white"/>
</svg>
